<?xml version="1.0" encoding="utf-8"?>
<!-- Generator: Adobe Illustrator 23.0.1, SVG Export Plug-In . SVG Version: 6.00 Build 0)  -->
<svg version="1.1" id="Layer_1" xmlns="http://www.w3.org/2000/svg" xmlns:xlink="http://www.w3.org/1999/xlink" x="0px" y="0px"
	 viewBox="0 0 1080 1920" style="enable-background:new 0 0 1080 1920;" xml:space="preserve">
<style type="text/css">
	.st0{fill:none;stroke:#666666;stroke-width:12;stroke-miterlimit:10;}
	.st1{fill:#999999;stroke:#666666;stroke-width:12;stroke-miterlimit:10;}
	.st2{fill:#868686;stroke:#666666;stroke-width:12;stroke-miterlimit:10;}
</style>
<path class="st0" d="M1032.9,87.5L698.3,475.6c-3.1,3.6-1.7,9.3,2.7,11l330.5,129.8c5.4,2.1,6,9.5,1,12.5l-927.3,556.7
	c-2.8,1.7-4,5-3.1,8.1l71.2,222c0.8,2.6,3.1,4.4,5.8,4.8l240.4,31.1c3,0.4,5.5,2.7,6,5.8l33.2,199.3c0.6,3.7,4,6.2,7.7,5.8
	l358.8-41.8c1.2-0.2,2.4-0.6,3.4-1.4l207.5-157.5c4.4-3.3,3.4-10.2-1.8-12.1l-378.8-138.4c-3.8-1.4-5.6-5.7-4-9.4l389.5-862.8
	c2.3-5.1-2-10.6-7.5-9.8L372.2,533.4L241.6,554c-3.4,0.5-6.7-1.5-7.7-4.7l-35.6-109.7c-1.7-5.3-8.6-6.5-12.1-2.3L51.6,602.4
	L194,427.8c1-1.3,2.5-2.1,4.1-2.4l115.4-22.5c2.4-0.5,4.4-2.2,5.2-4.5l85.6-237c1.8-5,8.4-6.2,11.9-2.1l627.1,736.8
	c1,1.1,1.5,2.6,1.5,4l0,0c0,2.1-1.5,3.9-3.6,4.3l-622.5,107.3c-7.4,1.3,141.9,49.4,141.9,49.4c0.1,0,0.2,0.1,0.3,0.1l471.9,145.4v-3
	l0,0c4.7,3.5,3.2,11-2.6,12.4l-380.5,91.5l0,0l-187.3,351c-1.6,3-0.8,6.6,1.8,8.7l257.8,205.6c1.2,1,2.7,1.5,4.3,1.5l216.2,1.4
	c0.8,0-840.3-685.2-840.3-685.2c-0.3-0.2-0.4-0.6-0.3-0.9l133.1-632.7c0.3-1.2,0.2-2.4-0.2-3.6l-101.2-312c-1.2-3.7,0.9-7.7,4.6-8.8
	L799.1,30.8c2.3-0.7,4.8-0.2,6.6,1.4l230,196.2c4.4,3.7,2.6,10.9-3,12.1L331,400.3c-4.1,0.9-6.5,5.2-5,9.2l44.8,123.1l278.9,774
	c0.1,0.4,0.3,0.7,0.5,1.1l312.1,551.6c2.8,5,10.3,3.7,11.3-1.9l71.3-395.9"/>
<path class="st0" d="M790.9,29.6L681,483.7c0,0,0,0,0,0L505,937.5c-0.1,0.2-0.2,0.2-0.4,0.2c0,0-342.8-88.1-342.9-88.2L40.3,603.6
	c-0.2-0.3-0.6-0.2-0.6,0.1v250.9"/>
<ellipse class="st1" cx="724.1" cy="310.1" rx="19.3" ry="19.3"/>
<ellipse class="st1" cx="967.6" cy="167.6" rx="19.3" ry="19.3"/>
<ellipse class="st1" cx="816.1" cy="942.2" rx="19.3" ry="19.3"/>
<ellipse class="st1" cx="370.8" cy="532.7" rx="19.3" ry="19.3"/>
<ellipse class="st1" cx="106.5" cy="1188.5" rx="34.1" ry="34.1"/>
<ellipse class="st1" cx="738.9" cy="1114.3" rx="19.3" ry="19.3"/>
<ellipse class="st1" cx="415.3" cy="1010.5" rx="19.3" ry="19.3"/>
<ellipse class="st1" cx="528.1" cy="1535.7" rx="19.3" ry="19.3"/>
<ellipse class="st1" cx="831" cy="1624.8" rx="19.3" ry="19.3"/>
<ellipse class="st1" cx="177.8" cy="1420" rx="19.3" ry="19.3"/>
<ellipse class="st1" cx="1037.3" cy="1466" rx="26.7" ry="26.7"/>
<ellipse class="st1" cx="792.4" cy="37.1" rx="19.3" ry="19.3"/>
<ellipse class="st1" cx="38.2" cy="847.2" rx="19.3" ry="19.3"/>
<ellipse class="st1" cx="323.3" cy="402.1" rx="19.3" ry="19.3"/>
<ellipse class="st2" cx="513.3" cy="936.3" rx="19.3" ry="19.3"/>
<ellipse class="st1" cx="970.5" cy="595" rx="19.3" ry="19.3"/>
<ellipse class="st1" cx="712.2" cy="1868.1" rx="19.3" ry="19.3"/>
<ellipse class="st1" cx="661.7" cy="1639.6" rx="34.2" ry="34.1"/>
<ellipse class="st1" cx="1035.8" cy="1212.3" rx="34.2" ry="34.1"/>
<ellipse class="st1" cx="955.7" cy="1868.1" rx="34.2" ry="34.1"/>
<ellipse class="st1" cx="465.8" cy="1657.4" rx="19.3" ry="19.3"/>
<ellipse class="st1" cx="421.2" cy="1452.6" rx="19.3" ry="19.3"/>
<ellipse class="st1" cx="171.8" cy="847.2" rx="19.3" ry="19.3"/>
<ellipse class="st1" cx="195.6" cy="422.9" rx="19.3" ry="19.3"/>
<ellipse class="st1" cx="136.2" cy="238.9" rx="19.3" ry="19.3"/>
<ellipse class="st1" cx="869.6" cy="277.5" rx="19.3" ry="19.3"/>
<ellipse class="st1" cx="1041.8" cy="897.7" rx="19.3" ry="19.3"/>
<ellipse class="st1" cx="1032.9" cy="84.6" rx="19.3" ry="19.3"/>
<ellipse class="st1" cx="649.9" cy="1310.2" rx="34.2" ry="34.1"/>
<ellipse class="st1" cx="700.3" cy="476.3" rx="34.2" ry="34.1"/>
<ellipse class="st1" cx="902.3" cy="719.6" rx="34.2" ry="34.1"/>
<ellipse class="st1" cx="403.4" cy="158.7" rx="34.1" ry="34.1"/>
<ellipse class="st1" cx="44.2" cy="600.9" rx="34.2" ry="34.1"/>
<ellipse class="st1" cx="237.1" cy="553.4" rx="34.2" ry="34.1"/>
<ellipse class="st1" cx="578.6" cy="348.7" rx="19.3" ry="19.3"/>
<ellipse class="st1" cx="1032.9" cy="434.7" rx="19.3" ry="19.3"/>
<ellipse class="st1" cx="1032.9" cy="624.8" rx="19.3" ry="19.3"/>
</svg>
