<?xml version="1.0" encoding="utf-8"?>
<!-- Generator: Adobe Illustrator 23.0.1, SVG Export Plug-In . SVG Version: 6.00 Build 0)  -->
<svg version="1.1" id="Layer_1" xmlns="http://www.w3.org/2000/svg" xmlns:xlink="http://www.w3.org/1999/xlink" x="0px" y="0px"
	 viewBox="0 0 1080 1920" style="enable-background:new 0 0 1080 1920;" xml:space="preserve">
<style type="text/css">
	.st0{fill:none;stroke:url(#SVGID_1_);stroke-width:12;stroke-miterlimit:10;}
	.st1{fill:none;stroke:url(#SVGID_2_);stroke-width:12;stroke-miterlimit:10;}
	.st2{fill:url(#SVGID_3_);stroke:url(#SVGID_4_);stroke-width:12;stroke-miterlimit:10;}
	.st3{fill:url(#SVGID_5_);stroke:url(#SVGID_6_);stroke-width:12;stroke-miterlimit:10;}
	.st4{fill:url(#SVGID_7_);stroke:url(#SVGID_8_);stroke-width:12;stroke-miterlimit:10;}
	.st5{fill:url(#SVGID_9_);stroke:url(#SVGID_10_);stroke-width:12;stroke-miterlimit:10;}
	.st6{fill:url(#SVGID_11_);stroke:url(#SVGID_12_);stroke-width:12;stroke-miterlimit:10;}
	.st7{fill:url(#SVGID_13_);stroke:url(#SVGID_14_);stroke-width:12;stroke-miterlimit:10;}
	.st8{fill:url(#SVGID_15_);stroke:url(#SVGID_16_);stroke-width:12;stroke-miterlimit:10;}
	.st9{fill:url(#SVGID_17_);stroke:url(#SVGID_18_);stroke-width:12;stroke-miterlimit:10;}
	.st10{fill:url(#SVGID_19_);stroke:url(#SVGID_20_);stroke-width:12;stroke-miterlimit:10;}
	.st11{fill:url(#SVGID_21_);stroke:url(#SVGID_22_);stroke-width:12;stroke-miterlimit:10;}
	.st12{fill:url(#SVGID_23_);stroke:url(#SVGID_24_);stroke-width:12;stroke-miterlimit:10;}
	.st13{fill:url(#SVGID_25_);stroke:url(#SVGID_26_);stroke-width:12;stroke-miterlimit:10;}
	.st14{fill:url(#SVGID_27_);stroke:url(#SVGID_28_);stroke-width:12;stroke-miterlimit:10;}
	.st15{fill:url(#SVGID_29_);stroke:url(#SVGID_30_);stroke-width:12;stroke-miterlimit:10;}
	.st16{fill:url(#SVGID_31_);stroke:url(#SVGID_32_);stroke-width:12;stroke-miterlimit:10;}
	.st17{fill:url(#SVGID_33_);stroke:url(#SVGID_34_);stroke-width:12;stroke-miterlimit:10;}
	.st18{fill:url(#SVGID_35_);stroke:url(#SVGID_36_);stroke-width:12;stroke-miterlimit:10;}
	.st19{fill:url(#SVGID_37_);stroke:url(#SVGID_38_);stroke-width:12;stroke-miterlimit:10;}
	.st20{fill:url(#SVGID_39_);stroke:url(#SVGID_40_);stroke-width:12;stroke-miterlimit:10;}
	.st21{fill:url(#SVGID_41_);stroke:url(#SVGID_42_);stroke-width:12;stroke-miterlimit:10;}
	.st22{fill:url(#SVGID_43_);stroke:url(#SVGID_44_);stroke-width:12;stroke-miterlimit:10;}
	.st23{fill:url(#SVGID_45_);stroke:url(#SVGID_46_);stroke-width:12;stroke-miterlimit:10;}
	.st24{fill:url(#SVGID_47_);stroke:url(#SVGID_48_);stroke-width:12;stroke-miterlimit:10;}
	.st25{fill:url(#SVGID_49_);stroke:url(#SVGID_50_);stroke-width:12;stroke-miterlimit:10;}
	.st26{fill:url(#SVGID_51_);stroke:url(#SVGID_52_);stroke-width:12;stroke-miterlimit:10;}
	.st27{fill:url(#SVGID_53_);stroke:url(#SVGID_54_);stroke-width:12;stroke-miterlimit:10;}
	.st28{fill:url(#SVGID_55_);stroke:url(#SVGID_56_);stroke-width:12;stroke-miterlimit:10;}
	.st29{fill:url(#SVGID_57_);stroke:url(#SVGID_58_);stroke-width:12;stroke-miterlimit:10;}
	.st30{fill:url(#SVGID_59_);stroke:url(#SVGID_60_);stroke-width:12;stroke-miterlimit:10;}
	.st31{fill:url(#SVGID_61_);stroke:url(#SVGID_62_);stroke-width:12;stroke-miterlimit:10;}
	.st32{fill:url(#SVGID_63_);stroke:url(#SVGID_64_);stroke-width:12;stroke-miterlimit:10;}
	.st33{fill:url(#SVGID_65_);stroke:url(#SVGID_66_);stroke-width:12;stroke-miterlimit:10;}
	.st34{fill:url(#SVGID_67_);stroke:url(#SVGID_68_);stroke-width:12;stroke-miterlimit:10;}
	.st35{fill:url(#SVGID_69_);stroke:url(#SVGID_70_);stroke-width:12;stroke-miterlimit:10;}
	.st36{fill:url(#SVGID_71_);stroke:url(#SVGID_72_);stroke-width:12;stroke-miterlimit:10;}
	.st37{fill:url(#SVGID_73_);stroke:url(#SVGID_74_);stroke-width:12;stroke-miterlimit:10;}
	.st38{fill:url(#SVGID_75_);stroke:url(#SVGID_76_);stroke-width:12;stroke-miterlimit:10;}
</style>
<linearGradient id="SVGID_1_" gradientUnits="userSpaceOnUse" x1="30.23" y1="380.8226" x2="1034.0807" y2="380.8226" gradientTransform="matrix(-1 0 0 1 1081 570)">
	<stop  offset="0" style="stop-color:#3970B2"/>
	<stop  offset="1" style="stop-color:#363396"/>
</linearGradient>
<path class="st0" d="M1032.9,87.5L698.3,475.6c-3.1,3.6-1.7,9.3,2.7,11l330.5,129.8c5.4,2.1,6,9.5,1,12.5l-927.3,556.7
	c-2.8,1.7-4,5-3.1,8.1l71.2,222c0.8,2.6,3.1,4.4,5.8,4.8l240.4,31.1c3,0.4,5.5,2.7,6,5.8l33.2,199.3c0.6,3.7,4,6.2,7.7,5.8
	l358.8-41.8c1.2-0.2,2.4-0.6,3.4-1.4l207.5-157.5c4.4-3.3,3.4-10.2-1.8-12.1l-378.8-138.4c-3.8-1.4-5.6-5.7-4-9.4l389.5-862.8
	c2.3-5.1-2-10.6-7.5-9.8L372.2,533.4L241.6,554c-3.4,0.5-6.7-1.5-7.7-4.7l-35.6-109.7c-1.7-5.3-8.6-6.5-12.1-2.3L51.6,602.4
	L194,427.8c1-1.3,2.5-2.1,4.1-2.4l115.4-22.5c2.4-0.5,4.4-2.2,5.2-4.5l85.6-237c1.8-5,8.4-6.2,11.9-2.1l627.1,736.8
	c1,1.1,1.5,2.6,1.5,4l0,0c0,2.1-1.5,3.9-3.6,4.3l-622.5,107.3c-7.4,1.3,141.9,49.4,141.9,49.4c0.1,0,0.2,0.1,0.3,0.1l471.9,145.4v-3
	l0,0c4.7,3.5,3.2,11-2.6,12.4l-380.5,91.5l0,0l-187.3,351c-1.6,3-0.8,6.6,1.8,8.7l257.8,205.6c1.2,1,2.7,1.5,4.3,1.5l216.2,1.4
	c0.8,0-840.3-685.2-840.3-685.2c-0.3-0.2-0.4-0.6-0.3-0.9l133.1-632.7c0.3-1.2,0.2-2.4-0.2-3.6l-101.2-312c-1.2-3.7,0.9-7.7,4.6-8.8
	L799.1,30.8c2.3-0.7,4.8-0.2,6.6,1.4l230,196.2c4.4,3.7,2.6,10.9-3,12.1L331,400.3c-4.1,0.9-6.5,5.2-5,9.2l44.8,123.1l278.9,774
	c0.1,0.4,0.3,0.7,0.5,1.1l312.1,551.6c2.8,5,10.3,3.7,11.3-1.9l71.3-395.9"/>
<linearGradient id="SVGID_2_" gradientUnits="userSpaceOnUse" x1="284.2682" y1="-84.0408" x2="1047.3" y2="-84.0408" gradientTransform="matrix(-1 0 0 1 1081 570)">
	<stop  offset="0" style="stop-color:#3970B2"/>
	<stop  offset="1" style="stop-color:#363396"/>
</linearGradient>
<path class="st1" d="M790.9,29.6L681,483.7c0,0,0,0,0,0L505,937.5c-0.1,0.2-0.2,0.2-0.4,0.2c0,0-342.8-88.1-342.9-88.2L40.3,603.6
	c-0.2-0.3-0.6-0.2-0.6,0.1v250.9"/>
<linearGradient id="SVGID_3_" gradientUnits="userSpaceOnUse" x1="337.61" y1="-259.91" x2="376.21" y2="-259.91" gradientTransform="matrix(-1 0 0 1 1081 570)">
	<stop  offset="0" style="stop-color:#3970B2"/>
	<stop  offset="1" style="stop-color:#363396"/>
</linearGradient>
<linearGradient id="SVGID_4_" gradientUnits="userSpaceOnUse" x1="331.61" y1="-259.91" x2="382.21" y2="-259.91" gradientTransform="matrix(-1 0 0 1 1081 570)">
	<stop  offset="0" style="stop-color:#3970B2"/>
	<stop  offset="1" style="stop-color:#363396"/>
</linearGradient>
<ellipse class="st2" cx="724.1" cy="310.1" rx="19.3" ry="19.3"/>
<linearGradient id="SVGID_5_" gradientUnits="userSpaceOnUse" x1="94.14" y1="-402.36" x2="132.74" y2="-402.36" gradientTransform="matrix(-1 0 0 1 1081 570)">
	<stop  offset="0" style="stop-color:#3970B2"/>
	<stop  offset="1" style="stop-color:#363396"/>
</linearGradient>
<linearGradient id="SVGID_6_" gradientUnits="userSpaceOnUse" x1="88.14" y1="-402.36" x2="138.74" y2="-402.36" gradientTransform="matrix(-1 0 0 1 1081 570)">
	<stop  offset="0" style="stop-color:#3970B2"/>
	<stop  offset="1" style="stop-color:#363396"/>
</linearGradient>
<ellipse class="st3" cx="967.6" cy="167.6" rx="19.3" ry="19.3"/>
<linearGradient id="SVGID_7_" gradientUnits="userSpaceOnUse" x1="245.57" y1="372.2" x2="284.17" y2="372.2" gradientTransform="matrix(-1 0 0 1 1081 570)">
	<stop  offset="0" style="stop-color:#3970B2"/>
	<stop  offset="1" style="stop-color:#363396"/>
</linearGradient>
<linearGradient id="SVGID_8_" gradientUnits="userSpaceOnUse" x1="239.57" y1="372.2" x2="290.17" y2="372.2" gradientTransform="matrix(-1 0 0 1 1081 570)">
	<stop  offset="0" style="stop-color:#3970B2"/>
	<stop  offset="1" style="stop-color:#363396"/>
</linearGradient>
<ellipse class="st4" cx="816.1" cy="942.2" rx="19.3" ry="19.3"/>
<linearGradient id="SVGID_9_" gradientUnits="userSpaceOnUse" x1="690.95" y1="-37.34" x2="729.55" y2="-37.34" gradientTransform="matrix(-1 0 0 1 1081 570)">
	<stop  offset="0" style="stop-color:#3970B2"/>
	<stop  offset="1" style="stop-color:#363396"/>
</linearGradient>
<linearGradient id="SVGID_10_" gradientUnits="userSpaceOnUse" x1="684.95" y1="-37.34" x2="735.55" y2="-37.34" gradientTransform="matrix(-1 0 0 1 1081 570)">
	<stop  offset="0" style="stop-color:#3970B2"/>
	<stop  offset="1" style="stop-color:#363396"/>
</linearGradient>
<ellipse class="st5" cx="370.8" cy="532.7" rx="19.3" ry="19.3"/>
<linearGradient id="SVGID_11_" gradientUnits="userSpaceOnUse" x1="940.35" y1="618.51" x2="1008.65" y2="618.51" gradientTransform="matrix(-1 0 0 1 1081 570)">
	<stop  offset="0" style="stop-color:#3970B2"/>
	<stop  offset="1" style="stop-color:#363396"/>
</linearGradient>
<linearGradient id="SVGID_12_" gradientUnits="userSpaceOnUse" x1="934.35" y1="618.51" x2="1014.65" y2="618.51" gradientTransform="matrix(-1 0 0 1 1081 570)">
	<stop  offset="0" style="stop-color:#3970B2"/>
	<stop  offset="1" style="stop-color:#363396"/>
</linearGradient>
<ellipse class="st6" cx="106.5" cy="1188.5" rx="34.1" ry="34.1"/>
<linearGradient id="SVGID_13_" gradientUnits="userSpaceOnUse" x1="322.76" y1="544.3199" x2="361.36" y2="544.3199" gradientTransform="matrix(-1 0 0 1 1081 570)">
	<stop  offset="0" style="stop-color:#3970B2"/>
	<stop  offset="1" style="stop-color:#363396"/>
</linearGradient>
<linearGradient id="SVGID_14_" gradientUnits="userSpaceOnUse" x1="316.76" y1="544.3199" x2="367.36" y2="544.3199" gradientTransform="matrix(-1 0 0 1 1081 570)">
	<stop  offset="0" style="stop-color:#3970B2"/>
	<stop  offset="1" style="stop-color:#363396"/>
</linearGradient>
<ellipse class="st7" cx="738.9" cy="1114.3" rx="19.3" ry="19.3"/>
<linearGradient id="SVGID_15_" gradientUnits="userSpaceOnUse" x1="646.41" y1="440.45" x2="685.01" y2="440.45" gradientTransform="matrix(-1 0 0 1 1081 570)">
	<stop  offset="0" style="stop-color:#3970B2"/>
	<stop  offset="1" style="stop-color:#363396"/>
</linearGradient>
<linearGradient id="SVGID_16_" gradientUnits="userSpaceOnUse" x1="640.41" y1="440.45" x2="691.01" y2="440.45" gradientTransform="matrix(-1 0 0 1 1081 570)">
	<stop  offset="0" style="stop-color:#3970B2"/>
	<stop  offset="1" style="stop-color:#363396"/>
</linearGradient>
<ellipse class="st8" cx="415.3" cy="1010.5" rx="19.3" ry="19.3"/>
<linearGradient id="SVGID_17_" gradientUnits="userSpaceOnUse" x1="533.58" y1="965.72" x2="572.18" y2="965.72" gradientTransform="matrix(-1 0 0 1 1081 570)">
	<stop  offset="0" style="stop-color:#3970B2"/>
	<stop  offset="1" style="stop-color:#363396"/>
</linearGradient>
<linearGradient id="SVGID_18_" gradientUnits="userSpaceOnUse" x1="527.58" y1="965.72" x2="578.18" y2="965.72" gradientTransform="matrix(-1 0 0 1 1081 570)">
	<stop  offset="0" style="stop-color:#3970B2"/>
	<stop  offset="1" style="stop-color:#363396"/>
</linearGradient>
<ellipse class="st9" cx="528.1" cy="1535.7" rx="19.3" ry="19.3"/>
<linearGradient id="SVGID_19_" gradientUnits="userSpaceOnUse" x1="230.72" y1="1054.75" x2="269.32" y2="1054.75" gradientTransform="matrix(-1 0 0 1 1081 570)">
	<stop  offset="0" style="stop-color:#3970B2"/>
	<stop  offset="1" style="stop-color:#363396"/>
</linearGradient>
<linearGradient id="SVGID_20_" gradientUnits="userSpaceOnUse" x1="224.72" y1="1054.75" x2="275.32" y2="1054.75" gradientTransform="matrix(-1 0 0 1 1081 570)">
	<stop  offset="0" style="stop-color:#3970B2"/>
	<stop  offset="1" style="stop-color:#363396"/>
</linearGradient>
<ellipse class="st10" cx="831" cy="1624.8" rx="19.3" ry="19.3"/>
<linearGradient id="SVGID_21_" gradientUnits="userSpaceOnUse" x1="883.95" y1="849.98" x2="922.55" y2="849.98" gradientTransform="matrix(-1 0 0 1 1081 570)">
	<stop  offset="0" style="stop-color:#3970B2"/>
	<stop  offset="1" style="stop-color:#363396"/>
</linearGradient>
<linearGradient id="SVGID_22_" gradientUnits="userSpaceOnUse" x1="877.95" y1="849.98" x2="928.55" y2="849.98" gradientTransform="matrix(-1 0 0 1 1081 570)">
	<stop  offset="0" style="stop-color:#3970B2"/>
	<stop  offset="1" style="stop-color:#363396"/>
</linearGradient>
<ellipse class="st11" cx="177.8" cy="1420" rx="19.3" ry="19.3"/>
<linearGradient id="SVGID_23_" gradientUnits="userSpaceOnUse" x1="16.9301" y1="895.98" x2="70.39" y2="895.98" gradientTransform="matrix(-1 0 0 1 1081 570)">
	<stop  offset="0" style="stop-color:#3970B2"/>
	<stop  offset="1" style="stop-color:#363396"/>
</linearGradient>
<linearGradient id="SVGID_24_" gradientUnits="userSpaceOnUse" x1="10.9301" y1="895.98" x2="76.39" y2="895.98" gradientTransform="matrix(-1 0 0 1 1081 570)">
	<stop  offset="0" style="stop-color:#3970B2"/>
	<stop  offset="1" style="stop-color:#363396"/>
</linearGradient>
<ellipse class="st12" cx="1037.3" cy="1466" rx="26.7" ry="26.7"/>
<linearGradient id="SVGID_25_" gradientUnits="userSpaceOnUse" x1="269.32" y1="-532.94" x2="307.92" y2="-532.94" gradientTransform="matrix(-1 0 0 1 1081 570)">
	<stop  offset="0" style="stop-color:#3970B2"/>
	<stop  offset="1" style="stop-color:#363396"/>
</linearGradient>
<linearGradient id="SVGID_26_" gradientUnits="userSpaceOnUse" x1="263.32" y1="-532.94" x2="313.92" y2="-532.94" gradientTransform="matrix(-1 0 0 1 1081 570)">
	<stop  offset="0" style="stop-color:#3970B2"/>
	<stop  offset="1" style="stop-color:#363396"/>
</linearGradient>
<ellipse class="st13" cx="792.4" cy="37.1" rx="19.3" ry="19.3"/>
<linearGradient id="SVGID_27_" gradientUnits="userSpaceOnUse" x1="1023.49" y1="277.23" x2="1062.09" y2="277.23" gradientTransform="matrix(-1 0 0 1 1081 570)">
	<stop  offset="0" style="stop-color:#3970B2"/>
	<stop  offset="1" style="stop-color:#363396"/>
</linearGradient>
<linearGradient id="SVGID_28_" gradientUnits="userSpaceOnUse" x1="1017.49" y1="277.23" x2="1068.09" y2="277.23" gradientTransform="matrix(-1 0 0 1 1081 570)">
	<stop  offset="0" style="stop-color:#3970B2"/>
	<stop  offset="1" style="stop-color:#363396"/>
</linearGradient>
<ellipse class="st14" cx="38.2" cy="847.2" rx="19.3" ry="19.3"/>
<linearGradient id="SVGID_29_" gradientUnits="userSpaceOnUse" x1="738.45" y1="-167.91" x2="777.05" y2="-167.91" gradientTransform="matrix(-1 0 0 1 1081 570)">
	<stop  offset="0" style="stop-color:#3970B2"/>
	<stop  offset="1" style="stop-color:#363396"/>
</linearGradient>
<linearGradient id="SVGID_30_" gradientUnits="userSpaceOnUse" x1="732.45" y1="-167.91" x2="783.05" y2="-167.91" gradientTransform="matrix(-1 0 0 1 1081 570)">
	<stop  offset="0" style="stop-color:#3970B2"/>
	<stop  offset="1" style="stop-color:#363396"/>
</linearGradient>
<ellipse class="st15" cx="323.3" cy="402.1" rx="19.3" ry="19.3"/>
<linearGradient id="SVGID_31_" gradientUnits="userSpaceOnUse" x1="548.43" y1="366.26" x2="587.03" y2="366.26" gradientTransform="matrix(-1 0 0 1 1081 570)">
	<stop  offset="0" style="stop-color:#3970B2"/>
	<stop  offset="1" style="stop-color:#363396"/>
</linearGradient>
<linearGradient id="SVGID_32_" gradientUnits="userSpaceOnUse" x1="542.43" y1="366.26" x2="593.03" y2="366.26" gradientTransform="matrix(-1 0 0 1 1081 570)">
	<stop  offset="0" style="stop-color:#3970B2"/>
	<stop  offset="1" style="stop-color:#363396"/>
</linearGradient>
<ellipse class="st16" cx="513.3" cy="936.3" rx="19.3" ry="19.3"/>
<linearGradient id="SVGID_33_" gradientUnits="userSpaceOnUse" x1="91.16" y1="24.98" x2="129.76" y2="24.98" gradientTransform="matrix(-1 0 0 1 1081 570)">
	<stop  offset="0" style="stop-color:#3970B2"/>
	<stop  offset="1" style="stop-color:#363396"/>
</linearGradient>
<linearGradient id="SVGID_34_" gradientUnits="userSpaceOnUse" x1="85.16" y1="24.98" x2="135.76" y2="24.98" gradientTransform="matrix(-1 0 0 1 1081 570)">
	<stop  offset="0" style="stop-color:#3970B2"/>
	<stop  offset="1" style="stop-color:#363396"/>
</linearGradient>
<ellipse class="st17" cx="970.5" cy="595" rx="19.3" ry="19.3"/>
<linearGradient id="SVGID_35_" gradientUnits="userSpaceOnUse" x1="692.91" y1="1298.1" x2="731.51" y2="1298.1" gradientTransform="matrix(1 0 0 1 0 570)">
	<stop  offset="0" style="stop-color:#3970B2"/>
	<stop  offset="1" style="stop-color:#363396"/>
</linearGradient>
<linearGradient id="SVGID_36_" gradientUnits="userSpaceOnUse" x1="686.91" y1="1298.1" x2="737.51" y2="1298.1" gradientTransform="matrix(1 0 0 1 0 570)">
	<stop  offset="0" style="stop-color:#3970B2"/>
	<stop  offset="1" style="stop-color:#363396"/>
</linearGradient>
<ellipse class="st18" cx="712.2" cy="1868.1" rx="19.3" ry="19.3"/>
<linearGradient id="SVGID_37_" gradientUnits="userSpaceOnUse" x1="385.12" y1="1069.59" x2="453.42" y2="1069.59" gradientTransform="matrix(-1 0 0 1 1081 570)">
	<stop  offset="0" style="stop-color:#3970B2"/>
	<stop  offset="1" style="stop-color:#363396"/>
</linearGradient>
<linearGradient id="SVGID_38_" gradientUnits="userSpaceOnUse" x1="379.12" y1="1069.59" x2="459.42" y2="1069.59" gradientTransform="matrix(-1 0 0 1 1081 570)">
	<stop  offset="0" style="stop-color:#3970B2"/>
	<stop  offset="1" style="stop-color:#363396"/>
</linearGradient>
<ellipse class="st19" cx="661.7" cy="1639.6" rx="34.2" ry="34.1"/>
<linearGradient id="SVGID_39_" gradientUnits="userSpaceOnUse" x1="11" y1="642.25" x2="79.3" y2="642.25" gradientTransform="matrix(-1 0 0 1 1081 570)">
	<stop  offset="0" style="stop-color:#3970B2"/>
	<stop  offset="1" style="stop-color:#363396"/>
</linearGradient>
<linearGradient id="SVGID_40_" gradientUnits="userSpaceOnUse" x1="5" y1="642.25" x2="85.3" y2="642.25" gradientTransform="matrix(-1 0 0 1 1081 570)">
	<stop  offset="0" style="stop-color:#3970B2"/>
	<stop  offset="1" style="stop-color:#363396"/>
</linearGradient>
<ellipse class="st20" cx="1035.8" cy="1212.3" rx="34.2" ry="34.1"/>
<linearGradient id="SVGID_41_" gradientUnits="userSpaceOnUse" x1="91.16" y1="1298.1" x2="159.46" y2="1298.1" gradientTransform="matrix(-1 0 0 1 1081 570)">
	<stop  offset="0" style="stop-color:#3970B2"/>
	<stop  offset="1" style="stop-color:#363396"/>
</linearGradient>
<linearGradient id="SVGID_42_" gradientUnits="userSpaceOnUse" x1="85.16" y1="1298.1" x2="165.46" y2="1298.1" gradientTransform="matrix(-1 0 0 1 1081 570)">
	<stop  offset="0" style="stop-color:#3970B2"/>
	<stop  offset="1" style="stop-color:#363396"/>
</linearGradient>
<ellipse class="st21" cx="955.7" cy="1868.1" rx="34.2" ry="34.1"/>
<linearGradient id="SVGID_43_" gradientUnits="userSpaceOnUse" x1="595.9301" y1="1087.39" x2="634.53" y2="1087.39" gradientTransform="matrix(-1 0 0 1 1081 570)">
	<stop  offset="0" style="stop-color:#3970B2"/>
	<stop  offset="1" style="stop-color:#363396"/>
</linearGradient>
<linearGradient id="SVGID_44_" gradientUnits="userSpaceOnUse" x1="589.9301" y1="1087.39" x2="640.53" y2="1087.39" gradientTransform="matrix(-1 0 0 1 1081 570)">
	<stop  offset="0" style="stop-color:#3970B2"/>
	<stop  offset="1" style="stop-color:#363396"/>
</linearGradient>
<ellipse class="st22" cx="465.8" cy="1657.4" rx="19.3" ry="19.3"/>
<linearGradient id="SVGID_45_" gradientUnits="userSpaceOnUse" x1="640.47" y1="882.63" x2="679.0699" y2="882.63" gradientTransform="matrix(-1 0 0 1 1081 570)">
	<stop  offset="0" style="stop-color:#3970B2"/>
	<stop  offset="1" style="stop-color:#363396"/>
</linearGradient>
<linearGradient id="SVGID_46_" gradientUnits="userSpaceOnUse" x1="634.47" y1="882.63" x2="685.0699" y2="882.63" gradientTransform="matrix(-1 0 0 1 1081 570)">
	<stop  offset="0" style="stop-color:#3970B2"/>
	<stop  offset="1" style="stop-color:#363396"/>
</linearGradient>
<ellipse class="st23" cx="421.2" cy="1452.6" rx="19.3" ry="19.3"/>
<linearGradient id="SVGID_47_" gradientUnits="userSpaceOnUse" x1="889.88" y1="277.23" x2="928.48" y2="277.23" gradientTransform="matrix(-1 0 0 1 1081 570)">
	<stop  offset="0" style="stop-color:#3970B2"/>
	<stop  offset="1" style="stop-color:#363396"/>
</linearGradient>
<linearGradient id="SVGID_48_" gradientUnits="userSpaceOnUse" x1="883.88" y1="277.23" x2="934.48" y2="277.23" gradientTransform="matrix(-1 0 0 1 1081 570)">
	<stop  offset="0" style="stop-color:#3970B2"/>
	<stop  offset="1" style="stop-color:#363396"/>
</linearGradient>
<ellipse class="st24" cx="171.8" cy="847.2" rx="19.3" ry="19.3"/>
<linearGradient id="SVGID_49_" gradientUnits="userSpaceOnUse" x1="866.12" y1="-147.15" x2="904.72" y2="-147.15" gradientTransform="matrix(-1 0 0 1 1081 570)">
	<stop  offset="0" style="stop-color:#3970B2"/>
	<stop  offset="1" style="stop-color:#363396"/>
</linearGradient>
<linearGradient id="SVGID_50_" gradientUnits="userSpaceOnUse" x1="860.12" y1="-147.15" x2="910.72" y2="-147.15" gradientTransform="matrix(-1 0 0 1 1081 570)">
	<stop  offset="0" style="stop-color:#3970B2"/>
	<stop  offset="1" style="stop-color:#363396"/>
</linearGradient>
<ellipse class="st25" cx="195.6" cy="422.9" rx="19.3" ry="19.3"/>
<linearGradient id="SVGID_51_" gradientUnits="userSpaceOnUse" x1="925.51" y1="-331.13" x2="964.11" y2="-331.13" gradientTransform="matrix(-1 0 0 1 1081 570)">
	<stop  offset="0" style="stop-color:#3970B2"/>
	<stop  offset="1" style="stop-color:#363396"/>
</linearGradient>
<linearGradient id="SVGID_52_" gradientUnits="userSpaceOnUse" x1="919.51" y1="-331.13" x2="970.11" y2="-331.13" gradientTransform="matrix(-1 0 0 1 1081 570)">
	<stop  offset="0" style="stop-color:#3970B2"/>
	<stop  offset="1" style="stop-color:#363396"/>
</linearGradient>
<ellipse class="st26" cx="136.2" cy="238.9" rx="19.3" ry="19.3"/>
<linearGradient id="SVGID_53_" gradientUnits="userSpaceOnUse" x1="192.12" y1="-292.55" x2="230.72" y2="-292.55" gradientTransform="matrix(-1 0 0 1 1081 570)">
	<stop  offset="0" style="stop-color:#3970B2"/>
	<stop  offset="1" style="stop-color:#363396"/>
</linearGradient>
<linearGradient id="SVGID_54_" gradientUnits="userSpaceOnUse" x1="186.12" y1="-292.55" x2="236.72" y2="-292.55" gradientTransform="matrix(-1 0 0 1 1081 570)">
	<stop  offset="0" style="stop-color:#3970B2"/>
	<stop  offset="1" style="stop-color:#363396"/>
</linearGradient>
<ellipse class="st27" cx="869.6" cy="277.5" rx="19.3" ry="19.3"/>
<linearGradient id="SVGID_55_" gradientUnits="userSpaceOnUse" x1="19.9099" y1="327.68" x2="58.5099" y2="327.68" gradientTransform="matrix(-1 0 0 1 1081 570)">
	<stop  offset="0" style="stop-color:#3970B2"/>
	<stop  offset="1" style="stop-color:#363396"/>
</linearGradient>
<linearGradient id="SVGID_56_" gradientUnits="userSpaceOnUse" x1="13.9099" y1="327.68" x2="64.5099" y2="327.68" gradientTransform="matrix(-1 0 0 1 1081 570)">
	<stop  offset="0" style="stop-color:#3970B2"/>
	<stop  offset="1" style="stop-color:#363396"/>
</linearGradient>
<ellipse class="st28" cx="1041.8" cy="897.7" rx="19.3" ry="19.3"/>
<linearGradient id="SVGID_57_" gradientUnits="userSpaceOnUse" x1="28.8199" y1="-485.45" x2="67.42" y2="-485.45" gradientTransform="matrix(-1 0 0 1 1081 570)">
	<stop  offset="0" style="stop-color:#3970B2"/>
	<stop  offset="1" style="stop-color:#363396"/>
</linearGradient>
<linearGradient id="SVGID_58_" gradientUnits="userSpaceOnUse" x1="22.8199" y1="-485.45" x2="73.42" y2="-485.45" gradientTransform="matrix(-1 0 0 1 1081 570)">
	<stop  offset="0" style="stop-color:#3970B2"/>
	<stop  offset="1" style="stop-color:#363396"/>
</linearGradient>
<ellipse class="st29" cx="1032.9" cy="84.6" rx="19.3" ry="19.3"/>
<linearGradient id="SVGID_59_" gradientUnits="userSpaceOnUse" x1="396.99" y1="740.1801" x2="465.29" y2="740.1801" gradientTransform="matrix(-1 0 0 1 1081 570)">
	<stop  offset="0" style="stop-color:#3970B2"/>
	<stop  offset="1" style="stop-color:#363396"/>
</linearGradient>
<linearGradient id="SVGID_60_" gradientUnits="userSpaceOnUse" x1="390.99" y1="740.1801" x2="471.29" y2="740.1801" gradientTransform="matrix(-1 0 0 1 1081 570)">
	<stop  offset="0" style="stop-color:#3970B2"/>
	<stop  offset="1" style="stop-color:#363396"/>
</linearGradient>
<ellipse class="st30" cx="649.9" cy="1310.2" rx="34.2" ry="34.1"/>
<linearGradient id="SVGID_61_" gradientUnits="userSpaceOnUse" x1="346.52" y1="-93.72" x2="414.82" y2="-93.72" gradientTransform="matrix(-1 0 0 1 1081 570)">
	<stop  offset="0" style="stop-color:#3970B2"/>
	<stop  offset="1" style="stop-color:#363396"/>
</linearGradient>
<linearGradient id="SVGID_62_" gradientUnits="userSpaceOnUse" x1="340.52" y1="-93.72" x2="420.82" y2="-93.72" gradientTransform="matrix(-1 0 0 1 1081 570)">
	<stop  offset="0" style="stop-color:#3970B2"/>
	<stop  offset="1" style="stop-color:#363396"/>
</linearGradient>
<ellipse class="st31" cx="700.3" cy="476.3" rx="34.2" ry="34.1"/>
<linearGradient id="SVGID_63_" gradientUnits="userSpaceOnUse" x1="144.6" y1="149.63" x2="212.9" y2="149.63" gradientTransform="matrix(-1 0 0 1 1081 570)">
	<stop  offset="0" style="stop-color:#3970B2"/>
	<stop  offset="1" style="stop-color:#363396"/>
</linearGradient>
<linearGradient id="SVGID_64_" gradientUnits="userSpaceOnUse" x1="138.6" y1="149.63" x2="218.9" y2="149.63" gradientTransform="matrix(-1 0 0 1 1081 570)">
	<stop  offset="0" style="stop-color:#3970B2"/>
	<stop  offset="1" style="stop-color:#363396"/>
</linearGradient>
<ellipse class="st32" cx="902.3" cy="719.6" rx="34.2" ry="34.1"/>
<linearGradient id="SVGID_65_" gradientUnits="userSpaceOnUse" x1="643.43" y1="-411.26" x2="711.73" y2="-411.26" gradientTransform="matrix(-1 0 0 1 1081 570)">
	<stop  offset="0" style="stop-color:#3970B2"/>
	<stop  offset="1" style="stop-color:#363396"/>
</linearGradient>
<linearGradient id="SVGID_66_" gradientUnits="userSpaceOnUse" x1="637.43" y1="-411.26" x2="717.73" y2="-411.26" gradientTransform="matrix(-1 0 0 1 1081 570)">
	<stop  offset="0" style="stop-color:#3970B2"/>
	<stop  offset="1" style="stop-color:#363396"/>
</linearGradient>
<ellipse class="st33" cx="403.4" cy="158.7" rx="34.1" ry="34.1"/>
<linearGradient id="SVGID_67_" gradientUnits="userSpaceOnUse" x1="1002.7" y1="30.92" x2="1071" y2="30.92" gradientTransform="matrix(-1 0 0 1 1081 570)">
	<stop  offset="0" style="stop-color:#3970B2"/>
	<stop  offset="1" style="stop-color:#363396"/>
</linearGradient>
<linearGradient id="SVGID_68_" gradientUnits="userSpaceOnUse" x1="996.7" y1="30.92" x2="1077" y2="30.92" gradientTransform="matrix(-1 0 0 1 1081 570)">
	<stop  offset="0" style="stop-color:#3970B2"/>
	<stop  offset="1" style="stop-color:#363396"/>
</linearGradient>
<ellipse class="st34" cx="44.2" cy="600.9" rx="34.2" ry="34.1"/>
<linearGradient id="SVGID_69_" gradientUnits="userSpaceOnUse" x1="809.71" y1="-16.57" x2="878.01" y2="-16.57" gradientTransform="matrix(-1 0 0 1 1081 570)">
	<stop  offset="0" style="stop-color:#3970B2"/>
	<stop  offset="1" style="stop-color:#363396"/>
</linearGradient>
<linearGradient id="SVGID_70_" gradientUnits="userSpaceOnUse" x1="803.71" y1="-16.57" x2="884.01" y2="-16.57" gradientTransform="matrix(-1 0 0 1 1081 570)">
	<stop  offset="0" style="stop-color:#3970B2"/>
	<stop  offset="1" style="stop-color:#363396"/>
</linearGradient>
<ellipse class="st35" cx="237.1" cy="553.4" rx="34.2" ry="34.1"/>
<linearGradient id="SVGID_71_" gradientUnits="userSpaceOnUse" x1="483.1" y1="-221.34" x2="521.7" y2="-221.34" gradientTransform="matrix(-1 0 0 1 1081 570)">
	<stop  offset="0" style="stop-color:#3970B2"/>
	<stop  offset="1" style="stop-color:#363396"/>
</linearGradient>
<linearGradient id="SVGID_72_" gradientUnits="userSpaceOnUse" x1="477.1" y1="-221.34" x2="527.7" y2="-221.34" gradientTransform="matrix(-1 0 0 1 1081 570)">
	<stop  offset="0" style="stop-color:#3970B2"/>
	<stop  offset="1" style="stop-color:#363396"/>
</linearGradient>
<ellipse class="st36" cx="578.6" cy="348.7" rx="19.3" ry="19.3"/>
<linearGradient id="SVGID_73_" gradientUnits="userSpaceOnUse" x1="28.8199" y1="-135.27" x2="67.42" y2="-135.27" gradientTransform="matrix(-1 0 0 1 1081 570)">
	<stop  offset="0" style="stop-color:#3970B2"/>
	<stop  offset="1" style="stop-color:#363396"/>
</linearGradient>
<linearGradient id="SVGID_74_" gradientUnits="userSpaceOnUse" x1="22.8199" y1="-135.27" x2="73.42" y2="-135.27" gradientTransform="matrix(-1 0 0 1 1081 570)">
	<stop  offset="0" style="stop-color:#3970B2"/>
	<stop  offset="1" style="stop-color:#363396"/>
</linearGradient>
<ellipse class="st37" cx="1032.9" cy="434.7" rx="19.3" ry="19.3"/>
<linearGradient id="SVGID_75_" gradientUnits="userSpaceOnUse" x1="26.8199" y1="54.76" x2="65.42" y2="54.76" gradientTransform="matrix(-1 0 0 1 1081 570)">
	<stop  offset="0" style="stop-color:#3970B2"/>
	<stop  offset="1" style="stop-color:#363396"/>
</linearGradient>
<linearGradient id="SVGID_76_" gradientUnits="userSpaceOnUse" x1="20.8199" y1="54.76" x2="71.42" y2="54.76" gradientTransform="matrix(-1 0 0 1 1081 570)">
	<stop  offset="0" style="stop-color:#3970B2"/>
	<stop  offset="1" style="stop-color:#363396"/>
</linearGradient>
<ellipse class="st38" cx="1034.9" cy="624.8" rx="19.3" ry="19.3"/>
</svg>
