<?xml version="1.0" encoding="utf-8"?>
<!-- Generator: Adobe Illustrator 23.0.1, SVG Export Plug-In . SVG Version: 6.00 Build 0)  -->
<svg version="1.1" id="Layer_1" xmlns="http://www.w3.org/2000/svg" xmlns:xlink="http://www.w3.org/1999/xlink" x="0px" y="0px"
	 viewBox="0 0 1080 1080" style="enable-background:new 0 0 1080 1080;" xml:space="preserve">
<style type="text/css">
	.st0{fill:#B81F00;stroke:#A16A34;stroke-miterlimit:10;}
	.st1{opacity:0.75;fill:#FFDF58;}
	.st2{opacity:0.75;fill:#FEC554;stroke:#FEC554;stroke-miterlimit:10;}
	.st3{opacity:0.75;fill:#FEE092;stroke:#FEE092;stroke-miterlimit:10;}
	.st4{opacity:0.75;fill:#160000;stroke:#160000;stroke-miterlimit:10;}
	.st5{fill:#8A4501;}
	.st6{opacity:0.75;fill:#A16A34;stroke:#A16A34;stroke-miterlimit:10;}
	.st7{opacity:0.75;fill:#FF860B;stroke:#FF860B;stroke-miterlimit:10;}
	.st8{opacity:0.75;fill:#FBBD2A;}
	.st9{opacity:0.75;fill:#F7CF44;stroke:#F7CF44;stroke-miterlimit:10;}
	.st10{fill:#FA5D01;}
	.st11{opacity:0.75;fill:#FEBE27;stroke:#FEBE27;stroke-miterlimit:10;}
	.st12{opacity:0.75;fill:#FD8311;stroke:#FD8311;stroke-miterlimit:10;}
	.st13{opacity:0.75;fill:#F95A00;stroke:#F95A00;stroke-miterlimit:10;}
	.st14{opacity:0.75;fill:#FFF379;stroke:#FFF379;stroke-miterlimit:10;}
	.st15{opacity:0.75;fill:#D02001;stroke:#D02001;stroke-miterlimit:10;}
	.st16{opacity:0.75;fill:#9F0809;stroke:#9F0809;stroke-miterlimit:10;}
	.st17{opacity:0.75;fill:#CA1727;}
	.st18{opacity:0.75;fill:#FFBF2C;stroke:#FFBF2C;stroke-miterlimit:10;}
	.st19{opacity:0.75;fill:#FEA618;stroke:#FEA618;stroke-miterlimit:10;}
	.st20{fill:#FEA618;stroke:#FEA618;stroke-miterlimit:10;}
	.st21{fill:#A80A01;stroke:#A80A01;stroke-miterlimit:10;}
	.st22{opacity:0.75;fill:none;stroke:#B36E2D;stroke-width:3;stroke-linecap:round;stroke-linejoin:round;stroke-miterlimit:10;}
	.st23{fill:none;stroke:#B36E2D;stroke-width:3;stroke-linecap:round;stroke-linejoin:round;stroke-miterlimit:10;}
	.st24{opacity:0.75;fill:#F2B152;stroke:#F2B152;stroke-miterlimit:10;}
	.st25{fill:#FFFFFF;stroke:#FFFFFF;stroke-miterlimit:10;}
	.st26{stroke:#000000;stroke-miterlimit:10;}
	.st27{fill:#FDD347;stroke:#FDD347;stroke-miterlimit:10;}
</style>
<path class="st0" d="M317.64,954.16c69.95,13.88,98.55,37.19,111.57,56.45c3.78,5.59,12.24,19.69,17.05,18.35
	c8.1-2.27-6.04-45.08,4.65-49.4c9.73-3.93,41.28,23.56,49.59,57.86c4.31,17.8,0.83,31.1,6.2,32.46
	c6.36,1.61,19.58-14.94,24.79-32.46c4.9-16.48,0.71-27.09,4.65-28.23c5.15-1.48,18.71,14.81,23.24,33.87
	c3.75,15.75-0.49,25.69,3.1,26.81c5.46,1.72,19.13-20.09,26.34-35.28c2.64-5.56,6.05-12.74,8.62-22.92
	c4.51-17.88,1.85-26.96,5.33-27.88c4.84-1.28,18.05,14.1,20.14,32.46c2.06,18.06-7.57,30.8-4.65,32.46
	c4.02,2.28,22.83-11.65,34.09-32.46c11.54-21.33,4.28-29.81,15.5-46.57c13.38-20.01,40.02-32.33,48.04-26.81
	c9.18,6.32-11.07,32.6-1.55,40.93c11.55,10.11,62.95-9.69,97.62-46.57c41.12-43.75,45.3-97.29,54.24-95.97
	c8.99,1.32,0,54.82,15.5,59.27c16.86,4.84,49.5-52.15,51.14-55.04c10.04-17.75,28.16-49.79,29.11-92.74
	c0.41-18.66-2.59-31.58,1.88-32.87c5.7-1.63,21.15,16.39,23.24,36.69c1.88,18.2-7.75,30.67-4.65,32.46
	c3.94,2.28,25.81-14.14,40.29-38.11c37.85-62.63,10.93-153.18-11.76-184.51c-2.45-3.38-9.21-12.1-6.84-14.48
	c3.08-3.09,21.49,4.57,34.09,16.94c18.37,18.03,17.85,39.64,21.69,39.52c4.62-0.15,12.7-31.58,9.3-71.98
	c-7.81-92.87-71.76-179.33-118.44-213.34c-5.65-4.12-17.98-12.52-16.38-15.29c2.31-3.99,34.29,2.44,58.88,19.76
	c33.53,23.61,39.67,57.85,44.94,56.45c4.97-1.32,4.07-33.06-9.3-66.33c0,0-22.59-56.26-83.5-99.97
	c-13.57-9.74-20.93-13.88-20.93-13.88c-12.19-6.84-18.34-8.33-17.98-10.35c0.63-3.52,20.71-6.05,40.29-1.41
	c25.47,6.04,38.31,21.44,40.29,19.76c2.67-2.27-16.76-33.82-49.59-56.45c-53.57-36.94-121.89-23.13-122.42-32.46
	c-0.28-5.02,18.77-11.5,35.64-12.7c23.74-1.69,39.93,7.29,41.84,4.23c2.06-3.3-13.39-19.28-34.09-28.23
	c-62.24-26.89-139.58,23.77-148.76,9.88c-4.97-7.53,15.09-26.41,17.05-28.23c21.21-19.7,47.17-21.9,46.49-25.4
	c-0.62-3.2-23.04-5.32-49.59,0c-52.21,10.46-82.38,42.09-88.33,36.69c-3.98-3.61,6.99-20.11,12.4-28.23
	c11.8-17.73,21.96-24.47,20.14-26.81c-2.62-3.39-27.25,6.21-49.59,19.76c-24.22,14.7-35.21,27.65-38.74,25.4
	c-6.08-3.88,20.52-46.09,17.05-47.98c-3.85-2.1-37.08,49.39-48.04,45.16c-9.48-3.65,2.6-47.08-1.55-47.98
	c-4.18-0.91-15.72,43.2-24.79,42.34C512.66,59.9,511,9.87,508.24,10c-2.75,0.13-0.43,49.87-7.75,50.81
	c-2.99,0.38-4.9-7.73-15.5-21.17c-8.28-10.5-19.38-21.12-21.69-19.76c-1.36,0.8,1.03,5.34,6.2,19.76
	c5.45,15.21,8.14,22.84,6.2,23.99c-2.61,1.54-10.64-7.98-21.69-16.94c-26.03-21.09-58.84-30.95-61.98-26.81
	c-1.8,2.37,5.48,10.17,17.05,22.58c7.33,7.86,11.38,11.02,15.5,18.35c0.79,1.41,8.54,15.21,4.65,18.35
	c-4.22,3.4-19.45-7.88-32.54-15.52C349.7,36.19,292.35,33.36,289.75,39.64c-0.92,2.23,5.36,4.85,23.24,18.35
	c15.16,11.45,41.86,31.6,38.74,36.69c-2.59,4.24-22.6-7.19-60.43-11.29c-30.53-3.31-55.31,0.03-65.08,1.41
	c-19.27,2.72-14.94,4.5-37.2,7.92c-5.7,0.88-10.45,1.45-10.83,3.37c-0.46,2.35,5.85,5.53,24.79,12.7
	c29.27,11.08,38.9,12.85,38.74,15.52c-0.25,4.2-24.07,2.59-54.24,9.88c-6.22,1.5-44.53,11.16-79.03,39.52
	c-19.62,16.12-35.66,36.37-32.54,39.52c2.09,2.11,11.26-4.94,29.44-11.29c25.28-8.84,52.77-11.02,54.24-7.06
	c1.54,4.19-27.81,10.22-58.88,35.28C76.11,250,63.86,270.93,57.31,282.38c-14.54,25.41-25.67,58.44-18.59,62.1
	c3.75,1.94,9.5-6,27.89-16.94c21.16-12.58,46.91-21.91,49.59-18.35c2.56,3.41-17.3,16.89-34.09,33.87
	c-32.04,32.41-42.21,66.71-54.24,107.26c-19.98,67.38-21.79,135.1-12.4,136.9c2.56,0.49,4.35-4.24,23.24-26.81
	c13.07-15.62,19.65-23.41,21.69-22.58c4.24,1.73-10.4,29.43-20.14,70.57c-13.41,56.61-1.57,71.27-3.84,135.59
	c-0.08,2.26-0.39,10.52,2.29,11.18c2.24,0.55,5.63-4.44,17.05-22.58c10.87-17.27,13.34-21.58,15.5-21.17
	c3.65,0.7,3.05,14.36,3.1,25.4c0.03,6.2,0.16,37.23,7.75,64.92c7.83,28.57,21.77,46.94,41.84,73.39
	c12.64,16.65,28.98,38.19,37.19,35.28c11.02-3.91-1.78-48.68,6.2-50.81c5.2-1.39,12.04,17.22,29.44,39.52
	c18.2,23.32,37.44,36.25,75.93,62.1c31.61,21.23,39.38,22.23,43.39,19.76C322.52,977.02,320.17,963.6,317.64,954.16z"/>
<path class="st1" d="M356.38,619.68c-4.29-1.75,9.22-36.91,21.69-69.15c17.7-45.73,30.5-72.7,42.95-96.47
	c0.76-1.45,1.41-2.67,1.98-3.73c0,0,16.59-30.82,55.78-80.44c0,0,4.3-5.44,12.4-12.7c6.83-6.13,9.91-7.6,12.4-8.47
	c5.33-1.85,10.08-1.61,13.95-1.41c6.87,0.35,11.98,2.09,13.95,2.82c1.6,0.6,8.32,3.2,15.5,9.88c5.12,4.76,7.09,8.46,12.4,16.94
	c7.81,12.49,11.06,16.52,13.95,21.17c25.83,41.66,78.83,223.73,78.83,223.73s0.32,0.41,0.19,0.67c-0.75,1.46-13.55-2.67-18.59-4.23
	c-13.16-4.09-26.9-6.46-40.29-9.88c-31.52-8.05-78.33-8.36-94.52-8.47c-0.27,0-0.61,0-1.04-0.01c-9.23-0.05-42.26-0.05-87.28,5.65
	c-4.2,0.53-9,1.3-18.6,2.82c-18.61,2.96-24.68,4.34-30.99,8.47C357.91,618.9,357.18,620.01,356.38,619.68z"/>
<path class="st2" d="M209.94,675.43c11.19-5.96,26.38-13.51,44.94-21.17c8.95-3.69,40.62-16.46,85.23-26.81
	c22.34-5.19,76.39-16.38,148.76-16.94c57.2-0.44,124.8-0.96,199.9,26.81c40.96,15.15,105.37,46.57,105.37,46.57c0,0,0,12.54,0,12.7
	c0,7.78-3.29,31.85-12.4,53.63c-17.13,40.98-53.45,70.47-58.88,74.8c-45.04,35.88-93.44,45.34-128.62,52.22
	c-46.1,9.01-82.32,7.45-123.97,5.65c-29.27-1.26-55.77-2.56-89.88-11.29c-22.27-5.7-50.11-13.07-80.58-32.46
	c-14.22-9.05-44.5-28.8-65.08-64.92c-12.87-22.59-17.48-43.74-20.14-56.45C211.03,700.79,210.07,686.18,209.94,675.43z"/>
<path class="st3" d="M273.48,650.03c-6.02,6.03-7.8,14.95-6.2,28.23c4.88,40.54,32.54,69.15,32.54,69.15
	c26.24,27.15,57.61,36.91,85.23,45.16c43.84,13.1,79.19,12.89,111.57,12.7c9.77-0.06,74.54-0.87,141.01-22.58
	c14.55-4.75,27.77-10.04,41.84-18.35c27.21-16.05,42.38-34.38,46.49-39.52c12.41-15.54,22.29-34.18,24.79-46.57
	c0.2-0.98,3.1-15.52,3.1-15.52c0,0-25.42-11.14-40.29-16.94c0,0-23.22-9.06-57.33-16.94c-92.92-21.46-248.18-1.68-320.76,4.23
	c0,0-9.37,0.76-41.84,8.47C283.48,643.97,277.95,645.55,273.48,650.03z"/>
<path class="st4" d="M352.51,618.98c-2.47,0.98-6.61,3.2-10.85,7.06c0,0-4.89,5.3-6.2,12.7c-1.62,9.19,3.51,18.3,15.5,32.46
	c7.29,8.61,15.6,17.3,32.54,32.46c4.84,4.33,19.19,17.07,38.74,32.46c8.59,6.76,13.99,10.62,24.79,18.35
	c3.11,2.22,10.57,7.53,20.14,12.7c1.37,0.74,5.99,3.21,12.4,5.65c3.84,1.46,6.03,2.28,9.3,2.82c5.13,0.86,9.51,0.48,12.4,0
	c2.4-0.4,5.16-1.1,9.3-2.82c6.76-2.82,11.02-5.8,17.05-9.88c13.37-9.05,10.93-6.92,17.05-11.29c8.58-6.14,9.95-7.88,21.69-16.94
	c10.11-7.8,9.17-6.56,17.05-12.7c11.94-9.31,20.52-17.16,24.79-21.17c5.26-4.94,9.83-9.23,15.5-15.52
	c4.81-5.35,6.02-7.27,12.4-14.11c2.55-2.74,4.52-4.76,7.75-8.47c3.78-4.34,5.71-6.58,7.75-9.88c1.31-2.12,3.26-5.31,4.65-9.88
	c0.97-3.19,1.24-5.61,1.55-8.47c0.34-3.12,0.24-4.46,0-5.65c-0.17-0.85-0.84-3.6-3.1-5.65c-2.37-2.15-5.37-2.46-7.75-2.82
	c-5.32-0.8-10.27-3.04-15.5-4.23c-15.56-3.56-13.93-3.68-23.24-5.65c-6.41-1.35-16.24-2.8-35.64-5.65
	c-11.68-1.71-17.58-2.57-20.14-2.82c-11.95-1.16-14.25-0.46-32.54-1.41c-12.86-0.67-13.16-1.09-23.24-1.41
	c-11-0.35-19.53-0.12-23.24,0c-13.66,0.46-23.83,1.62-34.09,2.82c-8.22,0.96-9.75,1.32-29.44,4.23
	C394.56,608.53,369.9,612.1,352.51,618.98z"/>
<path class="st5" d="M356.38,622.51c-5.53,4.31-11.87,9.4-12.4,16.94c-0.43,6.26,3.3,12.04,4.65,14.11c2.42,3.71,5.06,6.06,6.2,7.06
	c22.79,19.94,26.34,22.58,26.34,22.58c3.69,2.95,16.88,13.4,35.64,25.4c18.73,11.98,25.57,14.35,29.44,15.52
	c10.19,3.08,19.57,3.82,24.79,4.23c4.28,0.34,11.17,0.23,24.79,0c19.45-0.33,22.79-0.74,26.34-1.41c8.38-1.59,14.55-4.03,18.59-5.65
	c6.25-2.5,8.67-4.11,21.69-11.29c18.99-10.47,17.37-9,23.24-12.7c9.16-5.77,16.55-11.52,21.69-15.52c3.03-2.36,2.65-2.15,12.4-9.88
	c9.75-7.74,9.89-7.76,12.4-9.88c8.3-7.04,7.05-7.09,13.95-12.7c5.41-4.41,7.27-5.27,9.3-8.47c2.51-3.96,3.46-8.66,3.1-11.29
	c-1.81-13.34-43.22-20.09-68.18-23.99c-23.84-3.73-42.59-5.1-51.14-5.65c-30.4-1.94-52.35-1.13-80.58,0
	c-4.95,0.2-42.84,1.85-75.93,9.88C380.07,610.45,367.9,613.53,356.38,622.51z"/>
<path class="st6" d="M365.68,632.39c1.7-6.35,21.14-12.09,23.24-12.7c13.26-3.84,19.88-5.76,27.89-7.06
	c12.62-2.05,22.53-2.33,41.84-2.82c8.31-0.21,21.87-0.42,38.74,0c6.13,0.15,5.52,0.21,34.09,1.41c14.26,0.6,19.47,0.18,29.44,1.41
	c6.18,0.76,13.52,1.98,18.59,2.82c6.67,1.11,10.38,1.73,15.5,2.82c1.77,0.38,7.92,2.14,20.14,5.65c5.46,1.57,8.93,2.61,10.85,5.65
	c1.52,2.4,1.55,5.24,1.55,5.65c0,0.26-0.04,3.02-1.55,5.65c-2.6,4.51-8.23,6.27-10.85,7.06c-21.38,6.4-30.99,7.06-30.99,7.06
	c-25.99,1.76-38.99,2.64-48.04,2.82c-18.66,0.37-32.88,0.15-41.84,0c-19.29-0.32-14.08-0.67-43.39-1.41
	c-8.99-0.23-16.18-0.37-26.34-1.41c-8.06-0.83-14.19-1.84-20.14-2.82c-6.39-1.05-10.08-1.82-13.95-2.82
	c-2.76-0.72-4.94-1.42-9.3-2.82c-6.91-2.23-9.76-3.42-12.4-5.65c-1.61-1.35-2.62-2.65-3.1-4.23
	C365.68,636.62,365.07,634.63,365.68,632.39z"/>
<path class="st7" d="M264.18,219.58c0.96,3.28,2.45,5.39,4.65,8.47c2.42,3.38,5.94,8.2,12.4,12.7c2.69,1.87,5.9,4.08,10.85,5.65
	c7.76,2.46,14.23,1.6,15.5,1.41c5.34-0.78,9.4-2.42,9.3-2.82c-0.13-0.52-5.02,0.37-5.42-0.71c-0.29-0.77,1.9-2.09,3.1-2.82
	c1.61-0.99,16.6-10.23,15.5-12.7c-0.01-0.02,0-0.01-1.55-1.41c-0.7-0.64-1.55-1.41-1.55-1.41c0,0,2.09-2.2,3.1-2.82
	c3.75-2.31,10.98,5.96,15.5,4.23c4.06-1.55,5.35-10.96,1.55-14.11c-1.1-0.91-1.81-0.63-10.85-2.82c-3.37-0.82-4.69-1.2-4.65-1.41
	c0.06-0.35,3.93-0.06,4.65,0c12.57,0.97,17.47,4.85,20.14,2.82c2.58-1.96,1.85-8.48-1.55-11.29c-2.5-2.06-5.48-1.35-7.75-4.23
	c-1.36-1.73-1.91-4.06-1.55-4.23c0.27-0.13,1.08,0.91,1.55,1.41c3.24,3.45,9.53,1.41,15.5,2.82c7.6,1.8,6.91,7.36,13.95,8.47
	c5.22,0.82,11.68-1.28,12.4-4.23c0.94-3.87-8.92-5.37-13.95-15.52c-1.51-3.05-1.88-5.29-4.65-8.47c-1.01-1.16-2.12-2.15-7.75-5.65
	c-9.93-6.16-10.52-5.58-13.95-8.47c-4.78-4.02-4.24-5.67-7.75-7.06c-3.13-1.24-6.22-0.83-12.4,0c-1.22,0.16-6.05,0.84-12.4,2.82
	c-5.34,1.67-9.26,3.48-10.85,4.23c-1.82,0.87-6.25,3.08-15.5,9.88c-8.13,5.98-12.2,8.97-15.5,12.7c-2.79,3.16-7.07,8.1-9.3,15.52
	c-1.31,4.35-1.48,8.11-1.55,9.88C263.29,213.32,263.18,216.16,264.18,219.58z"/>
<path class="st8" d="M316.87,263.33c1-7.01,3.73-11.37,6.2-14.11c3.1-3.45,6.89-5.58,6.2-7.06c-0.59-1.26-4.02-1.14-6.71-1.05
	c-5.41,0.18-8.49,1.56-8.79,1.05c-0.71-1.21,16.76-9.43,15.5-12.7c-0.62-1.61-5.69-1.73-7.86-1.78c-4.55-0.11-7.36,0.95-7.63,0.37
	c-0.3-0.63,2.56-2.88,6.2-4.23c7.34-2.72,17.05-1.47,20.23,0.86c0.25,0.19,0.97,0.75,1.47,0.55c0.8-0.33,0.75-2.55,0-4.23
	c-0.66-1.48-2-2.42-4.65-4.23c-4.07-2.79-6.1-4.18-6.2-4.23c-5.52-3.02-9.26-3.05-9.3-4.23c-0.03-1.14,3.38-2.3,6.2-2.82
	c11.51-2.14,23.59,4.36,25.57,6.57c0.11,0.13,0.48,0.56,0.77,0.48c0.73-0.18,0.68-3.37,0-5.65c-1.22-4.08-4.87-6.57-7.75-8.47
	c-5.37-3.55-9.36-4.03-9.3-5.65c0.06-1.56,3.87-2.62,4.65-2.82c15.68-4.1,38.74,14.11,38.74,14.11c0,0,3.32-0.08,4.65-1.41
	c1.37-1.38,0.53-3.99,0-5.65c-0.78-2.44-1.73-3.35-3.1-5.65c-2.33-3.92-4.27-9.18-3.1-9.88c0.61-0.37,1.94,0.58,3.1,1.41
	c1.85,1.32,3.38,2.93,6.2,7.06c1.81,2.64,2.6,4.06,4.65,5.65c1.41,1.08,2.28,1.38,3.1,1.41c2,0.08,3.83-1.35,4.65-2.82
	c0.53-0.95,0.64-1.91,0-5.65c-0.59-3.46-0.89-5.19-1.55-7.06c-1.13-3.2-2.28-4.58-4.65-8.47c-3.99-6.53-3.1-6.48-6.2-11.29
	c-1.68-2.6-3.95-6.09-7.75-9.88c-2.96-2.95-5.63-4.83-10.85-8.47c-3.41-2.38-8.15-5.52-10.85-7.06c-13.82-7.87-33.4-7.23-37.19-7.06
	c-18.59,0.85-31.79,7.62-38.74,11.29c-10.32,5.44-16.83,11.26-26.34,19.76c-8.69,7.76-13.03,11.65-17.05,18.35
	c-6.45,10.78-7.3,20.74-7.75,26.81c-0.68,9.27-1.39,18.88,4.65,28.23c2.98,4.62,6.78,7.88,12.4,12.7c3.5,3.01,7.6,6.49,13.95,9.88
	c1.83,0.98,6.89,3.57,13.95,5.65c4.39,1.29,7.63,1.81,13.95,2.82c6.47,1.04,9.71,1.56,12.4,1.41
	C309.68,265.78,316.82,263.34,316.87,263.33z"/>
<path class="st9" d="M241.71,189.24c2.08-1.63,3.31-2.92,4.65-4.23c0,0,2.01-1.98,6.2-5.65c3.35-2.93,5.02-3.9,9.3-7.06
	c7.71-5.7,6.68-5.81,12.4-9.88c3.36-2.39,7.75-5.52,13.95-8.47c0.13-0.06,0.02-0.01,12.4-5.65c2.06-0.94,3.09-1.41,3.1-1.41
	c7.58-3.47,7.69-3.69,9.3-4.23c2.94-0.98,5.25-1.14,9.3-1.41c1.58-0.11,1.25-0.02,9.3,0c10.86,0.03,10.16-0.13,10.85,0
	c1.33,0.24,2.91,0.63,4.65,0c0.3-0.11,2.38-0.9,3.1-2.82c0,0,0.51-1.37,0-2.82c-1.09-3.11-10.43-4.55-20.14-4.23
	c-2.31,0.07-13.58,0.54-27.89,5.65c-8.16,2.91-13.79,6.07-15.5,7.06c-5.63,3.24-9.08,6.06-15.5,11.29
	c-6.86,5.59-11.38,10-17.05,15.52c-1.04,1.01-4.94,4.83-9.3,9.88c-0.72,0.84-2.55,3.38-6.2,8.47c-0.95,1.33-1.84,2.58-1.55,2.82
	C237.56,192.49,241.25,189.6,241.71,189.24z"/>
<path class="st10" d="M268.05,223.11c0.53-0.02,0.07-3.16,1.55-8.47c1.54-5.55,4.07-9.44,6.2-12.7c3.25-4.99,6.44-8.33,9.3-11.29
	c3.68-3.82,7.03-6.66,9.3-8.47c5.81-4.64,10.79-7.55,12.4-8.47c3.88-2.22,8.63-4.89,15.5-7.06c3.93-1.24,8.14-2.57,13.95-2.82
	c5.84-0.26,11.15,0.66,15.5,1.41c0,0,0.56,0.1,7.75,1.41c-0.52-0.04,1.2,0.35,1.55,0c0.37-0.37-0.31-1.84-1.55-2.82
	c-0.78-0.62-1.34-0.7-3.1-1.41c-1.45-0.59-1.89-0.86-3.1-1.41c-2.83-1.28-6.23-2.39-7.75-2.82c-2.47-0.71-5.72-1.32-12.4-1.41
	c-9.51-0.13-14.26-0.2-20.14,1.41c-7.25,1.99-12.27,5.31-17.05,8.47c-4.16,2.75-7.7,5.71-9.3,7.06c-1.58,1.33-3.67,3.09-6.2,5.65
	c-3.48,3.51-5.7,6.4-6.2,7.06c-1.7,2.24-3.24,4.25-4.65,7.06c-0.54,1.07-2.2,4.53-3.1,9.88
	C264.8,213.53,267.13,223.14,268.05,223.11z"/>
<path class="st11" d="M649.25,192.06c-1.77-0.26-3.13-7.56-1.55-15.52c2.59-13.03,11.91-21.88,18.59-28.23
	c7.82-7.42,14.95-11.53,17.05-12.7c3.89-2.17,11.44-6.33,21.69-8.47c14.47-3.02,26.37-0.39,34.09,1.41
	c19.12,4.45,31.61,13.41,40.29,19.76c9.26,6.78,21.13,15.48,29.44,31.05c3.87,7.25,10.06,18.86,7.75,33.87
	c-2,12.99-9.35,21.82-12.4,25.4c-2.65,3.11-9.18,10.11-20.14,15.52c-8.96,4.42-16.34,5.54-26.34,7.06
	c-13.52,2.05-20.27,3.08-26.34,0c-2.8-1.42-6.52-5.65-13.95-14.11c-1.68-1.92-3.93-4.56-3.1-5.65c0.57-0.74,2.3-0.41,4.65,0
	c8.66,1.5,13.43,2.32,13.95,1.41c0.5-0.88-2.99-3.36-6.2-5.65c-4.96-3.53-7.44-5.29-10.2-6c-0.88-0.23-2.09-0.46-2.2-1.06
	c-0.17-0.97,2.74-2.24,4.65-2.82c4.54-1.39,8.72-0.55,9.58-0.36c3.72,0.81,5.38,2.28,5.91,1.77c0.75-0.71-1.16-4.85-4.65-7.06
	c-8.51-5.38-22.4,3.32-24.79,0c-1.45-2.01,2.68-6.6,3.1-7.06c6.06-6.62,15.41-6.1,15.5-8.47c0.06-1.67-4.55-3.74-9.3-4.23
	c-11.53-1.19-19.96,7.34-21.69,5.65c-1.2-1.17,1.67-6.38,6.2-9.88c5.41-4.18,10.83-4.1,10.85-5.65c0.02-1.72-6.68-4.38-13.95-4.23
	c-16.69,0.34-26.87,15.33-30.99,12.7c-2.41-1.54-0.62-7.73,0-9.88c2.23-7.72,7.48-10.93,6.2-12.7c-1.14-1.57-6.62-0.89-10.85,1.41
	C652.16,183.69,651.22,192.35,649.25,192.06z"/>
<path class="st12" d="M672.49,173.71c6.16-6.71,9.24-10.07,10.85-11.29c11.48-8.7,24.99-9.71,27.89-9.88
	c16.08-0.91,27.7,6.07,38.74,12.7c15.42,9.26,22.82,19.68,24.79,22.58c3.46,5.09,7.02,10.48,7.75,18.35
	c0.82,8.88-2.42,15.98-4.65,19.76c-0.69,1.17-9.25,15.13-26.34,18.35c-5.6,1.05-10.08,0.58-15.5,0c-11.53-1.23-17.04-4.63-18.6-5.65
	c-2.73-1.79-5.84-3.88-6.2-7.06c-0.39-3.41,2.66-5.79,1.55-7.06c-1.4-1.61-6.54,1.93-9.3,0c-2.09-1.47-1.84-5.41-1.55-9.88
	c0.24-3.69,0.9-4.89,0-5.65c-2.18-1.83-8.54,3.24-10.85,1.41c-0.64-0.51-0.69-1.32,0-8.47c0.44-4.59,0.56-5.25,0-5.65
	c-1.65-1.16-5.33,2.87-13.95,5.65c-4.61,1.49-7.36,1.56-9.3,1.41c-2.06-0.16-5.86-0.45-7.75-2.82c-0.95-1.2-1.7-3.28,0-8.47
	C662.27,185.4,666.19,180.58,672.49,173.71z"/>
<path class="st13" d="M688.77,161.72c0.13,0.41,4.13-1.08,10.85-1.41c11.35-0.56,20.17,2.7,27.89,5.65
	c11.04,4.21,18.37,9.28,23.24,12.7c9.77,6.86,14.66,10.29,18.6,16.94c1.76,2.97,6.91,11.66,6.2,22.58c-0.22,3.36-0.98,6.74,0,7.06
	c1.2,0.38,4.58-4,6.2-8.47c3.38-9.29-1.03-18.43-3.1-22.58c-3.12-6.25-6.84-10.01-12.4-15.52c-7.35-7.3-14.95-14.85-27.89-19.76
	c-3.65-1.39-10.65-3.97-20.14-4.23C701.82,154.21,688.52,160.95,688.77,161.72z"/>
<path class="st14" d="M693.41,134.9c1.02-1.88,3.64-3.68,10.85-4.23c24.43-1.88,43.39,5.65,43.39,5.65
	c21.26,8.43,33.89,21.22,43.39,31.05c9.86,10.2,18.19,21.67,17.05,22.58c-0.74,0.59-6.7-4.3-18.6-14.11
	c-10.62-8.76-11.3-9.74-17.05-14.11c-7.58-5.77-13.14-10-21.69-14.11c-4.92-2.36-11.19-5.38-20.14-7.06
	c-8.67-1.63-16.58-3.11-26.34-1.41c-4.06,0.71-9.08,2.07-10.85,0C692.44,137.99,692.75,136.12,693.41,134.9z"/>
<path class="st15" d="M405.19,140.55c-0.98,1.5,6.22,5.46,15.5,14.11c9.69,9.03,21.92,20.46,27.89,33.87
	c0.54,1.22,1.89,4.37,3.1,4.23c5.73-0.65,3.71-20.75,3.1-15.52c4.78,1.21,8.4,2.89,10.85,4.23c12.88,7.07,18.44,18.57,18.54,19.65
	c0,0.02,0.01,0.09,0.05,0.11c0.45,0.19,4.19-4.69,6.2-9.88c1-2.57,3.65-9.42,1.24-16.65c-0.74-2.24-1.85-4.12-1.24-4.52
	c0.83-0.55,4.12,2.17,6.2,4.23C498,175.79,507.24,185,507,195.7c-0.02,0.99-0.14,2.52,0.46,2.71c1.06,0.33,3.5-3.83,6.2-8.47
	c4.77-8.22,9.24-17.74,9.28-18.31c0-0.01,0-0.02,0.01-0.03c0.24-0.14,3.31,3.78,4.65,5.65c3.98,5.57,5.4,11.06,6.2,14.11
	c1.42,5.47,2.13,8.21,1.52,10.43c-0.05,0.19-0.21,0.72,0.02,0.87c0.74,0.48,5-3.2,7.75-7.06c0.73-1.03,1.99-2.96,4.65-11.29
	c2.51-7.87,3.5-12.77,4.65-12.7c0.35,0.02,0.76,0.96,1.55,2.82c0.64,1.51,1.12,2.63,1.55,4.23c1.4,5.2,0.3,7.94,1.55,8.47
	c0.29,0.12,1.12,0.3,4.65-2.82c1.19-1.05,4.54-4.12,10.85-12.7c0.67-0.91,1-1.36,1.04-1.42c1.56-2.22,1.66-2.78,2.06-2.81
	c1.01-0.08,2.6,3.41,3.1,7.06c0.26,1.88,0.92,6.69-1.77,11.44c-0.86,1.51-1.65,2.31-1.33,2.67c0.69,0.76,5.55-1.41,9.3-4.23
	c3.22-2.43,5.12-4.97,7.75-8.47c2.45-3.26,3.67-4.89,4.05-6.04c0.13-0.38,0.31-1.01,0.6-1.02c0.62-0.01,1.5,2.92,1.55,5.65
	c0.08,4.8-2.45,7.88-1.55,8.47c0.67,0.44,2.55-0.99,3.1-1.41c5.69-4.38,8.89-9.26,9.3-9.88c1.05-1.58,4.83-4.82,12.4-11.29
	c5.29-4.53,12.69-10.83,23.24-18.35c12.03-8.58,22.5-12.21,21.69-14.11c-0.36-0.84-2.65-0.76-3.87-0.71
	c-19.55,0.85-30.99,4.23-30.99,4.23c-4.17,1.23-20.6,6.09-26,10.35c-0.29,0.23-1.49,1.2-1.9,0.94c-0.87-0.56,2.69-6.38,3.1-7.06
	c6.88-11.28,20.74-24.18,26.34-26.81c0.45-0.21,2.34-1.06,3.1-2.82c0.33-0.77,0.64-2.16,0-2.82c-1.4-1.45-6.97,1.03-10.85,2.82
	c-11.81,5.48-17.71,8.22-21.69,11.29c-11.22,8.66-15.5,18.09-18.6,16.94c-1-0.37-1.29-1.63-1.55-2.82
	c-2.44-11.24,11.6-25.64,15.5-29.64c1.64-1.68,3.6-3.56,3.1-4.23c-0.77-1.04-7.24,0.89-12.4,4.23
	c-12.32,7.99-15.69,23.17-15.39,24.86c0.01,0.07,0.07,0.36-0.1,0.54c-0.65,0.66-3.72-0.87-4.65-1.41
	c-6.93-4.04-7.88-19.37-6.2-23.99c0.15-0.4,0.69-1.75,0-2.82c-0.64-1-2.17-1.45-3.1-1.41c-4.42,0.16-7.41,11.39-7.75,12.7
	c-2.5,9.68-0.61,16.22-3.1,16.94c-1.72,0.5-4.11-2.21-4.65-2.82c-2.34-2.66-2.17-4.97-3.1-8.47c-0.5-1.91-2.78-9.64-9.3-14.11
	c-1.51-1.04-4.34-3.61-6.2-2.82c-1.16,0.49-1.43,2.06-1.55,2.82c-1.38,9.03,1.17,22.82-1.55,23.99c-1.2,0.52-3.29-1.47-6.2-4.23
	c-5.21-4.95-8.22-10.56-9.3-12.7c-1.96-3.89-2.27-5.69-3.1-5.65c-2.17,0.11-3,12.56-3.1,14.11c-0.43,6.39-0.75,11.25,0.72,17.59
	c0.6,2.59,1.35,4.79,0.83,4.99c-0.78,0.31-3.12-4.37-7.75-9.88c-2.56-3.05-6.23-7.35-12.4-11.29c-7.14-4.57-8.37-2.74-14.67-6.47
	c-0.46-0.27-1.6-0.96-2.38-0.59c-1.64,0.79-0.36,5.67,0,7.06c1.2,4.59,3.08,7.61,6.2,12.7c5.92,9.67,6.6,10.99,6.2,11.29
	c-0.72,0.53-4.75-2.29-7.75-5.65c-3.24-3.62-2.9-5.22-6.2-8.47c-0.86-0.85-5.35-5.27-7.75-4.23c-1.95,0.84-1.62,4.91-1.55,5.65
	c0.91,9.42,12.18,14.97,10.85,16.94c-0.62,0.91-3.43,0.28-4.65,0c-6.02-1.37-8.11-4.51-13.95-8.47c-3.39-2.3-1.88-0.7-13.95-7.06
	c-6.34-3.34-9.52-5.24-10.85-4.23c-1.16,0.87-0.27,3.45,0,4.23c3.41,9.92,17.85,12.49,17.05,16.94c-0.26,1.42-1.96,2.46-3.1,2.82
	c-2.22,0.7-4.49-0.51-6.2-1.41c-7.44-3.93-11.21-5.92-13.95-7.06C412.52,140.88,406.05,139.23,405.19,140.55z"/>
<path class="st16" d="M409.84,827.85c1.19-1.83,9.65,3.27,26.34,4.23c7.15,0.41,19.83,1.14,32.54-4.23c0,0,5.6-2.36,27.89-21.17
	c0,0,10.09,9.29,12.4,11.29c9.94,8.63,23.74,10.69,37.19,12.7c23.01,3.44,46.9,0.38,54.2-3.39c0.5-0.26,2.55-1.36,3.13-0.84
	c1.16,1.05-4.54,7.89-6.2,9.88c-5.73,6.87-24.36,21.09-65.08,26.81c-22.62,3.18-49.42,6.95-79.03-4.23
	c-2.37-0.9-4.57-1.83-5.31-2.16C425.24,846.9,407.68,831.17,409.84,827.85z"/>
<path class="st17" d="M554.73,849.73c-6.62-7.08-44.59-27.88-83.68-12.7c-8.69,3.37-15.86,7.92-21.69,12.7
	c-1.04,1.12-4.44,4.97-3.1,7.06c0.53,0.82,1.59,1.04,3.1,1.41c3.15,0.78,6.14,2.07,9.3,2.82c6.75,1.61,5.94,1.7,10.85,2.82
	c1.64,0.37,9.48,2.13,17.05,2.82c5.86,0.54,12.69-0.11,26.34-1.41c18.37-1.75,18.25-2.66,24.79-2.82c4.26-0.1,6.46-0.54,10.85-1.41
	c0.42-0.08,2.32-0.47,4.65-1.41c2.4-0.97,4.04-1.63,4.65-2.82C559.07,854.37,555.63,850.69,554.73,849.73z"/>
<path class="st16" d="M554.73,851.14"/>
<path class="st18" d="M269.6,645.09c8.3-2.96,14.37-5.12,23.24-7.06c13.68-2.98,20.52-4.47,27.89-4.23
	c5.09,0.16,8.78,0.84,12.4-1.41c4.04-2.51,3.69-6,7.75-9.88c3.79-3.62,8.44-4.74,12.4-5.65c60.86-13.91,91.29-20.87,97.62-21.17
	c94.34-4.54,201.44,18.11,203,18.35c0.75,3.57,2.6,9.33,7.75,14.11c4.99,4.64,10.78,6.23,13.95,7.06
	c24.67,6.47,36.24,9.18,43.39,11.29c7.94,2.35,5.86,2.69,36.42,17.64c33.61,16.45,36.66,16.29,38.74,15.52
	c7.08-2.61,15.1-16.85,0.77-88.21c0,0-23.27-88.88-116.22-246.98c0.31-4.28,0.83-11.21,1.55-19.76c2.13-25.36,3.04-29.98,1.55-38.11
	c-0.48-2.58-2.68-13.63-10.85-25.4c-9.79-14.13-22.39-21-35.64-28.23c-18.31-9.99-27.18-15.4-38.74-14.11
	c-8.93,1-19.92,5.63-27.89,12.7c-5.04,4.47-10.22,11.12-17.05,14.11c-6.63,2.91-13.23,2.84-13.23,2.84
	c-0.43-0.01-0.69-0.02-0.71-0.02c-10.5,3.5-17.72,2.48-21.69,1.41c-2.44-0.66-5.24-1.85-10.85-4.23c-6.4-2.72-8.29-3.87-12.4-5.65
	c-6.21-2.68-7.99-2.69-17.05-5.65c-14.69-4.8-13.86-6.04-23.24-8.47c-6.06-1.57-12.06-3.07-20.14-2.82
	c-3.13,0.1-11.07,0.6-20.14,4.23c-5.51,2.21-4.79,2.91-17.05,9.88c-11.42,6.5-12.66,6.24-17.05,9.88
	c-5.95,4.94-4.46,6.07-10.85,11.29c-6.2,5.07-8.52,4.75-13.95,9.88c-2.26,2.14-5.52,5.22-7.75,9.88
	c-3.39,7.09-2.35,13.92-1.55,18.35c5.37,29.77,14.75,40.65,9.3,55.04c-1.79,4.72-4.36,7.66-6.2,9.88
	c-10.81,13.03-27.35,43.03-60.43,103.03c-36.71,66.58-55.07,99.87-61.98,125.61c-9.29,34.57-12.66,82.2-10.85,83.27
	C214.75,673.87,213.74,665,269.6,645.09z"/>
<path class="st19" d="M214.59,675.43c2.26,0.78,3.86-4.19,15.5-11.29c13.34-8.14,33.7-15.34,41.76-13.77
	c0.51,0.1,2.23,0.48,3.18-0.34c1.98-1.69-0.92-7.18-1.55-8.47c-5.03-10.37,1.38-30.26,9.3-59.27c6.15-22.54,2.6-11.71,7.75-29.64
	c2.13-7.42,9.73-33.61,27.89-86.09c0,0,5.89-17,28.88-81.39c0.11-0.3,1.81-5.08,1.9-5.33c1.97-5.52,1.95-5.46,1.97-5.52
	c1.16-3.11,1.48-3.65,1.33-3.73c-0.73-0.43-10.66,12.51-13.95,16.94c-65.75,88.64-99.17,179.24-99.17,179.24
	C219.83,619.76,207.3,672.92,214.59,675.43z"/>
<path class="st20" d="M673.27,287.32c-3.26-0.34-7.34,12.77-7.75,14.11c-5.44,17.78-2.69,33.66,0,45.16
	c1.72,7.35,5.13,20.21,17.05,47.98c12.13,28.29,23.52,49.75,26.34,55.04c14.84,27.78,17.26,27.97,24.79,45.16
	c9.05,20.64,13.03,37.4,15.5,47.98c1.59,6.82,6.76,30.1,7.75,60.69c0.59,18.15,1.42,43.7-2.35,50.87c-0.32,0.6-1.77,3.17-0.75,5.59
	c1.05,2.49,4.16,3.51,6.2,4.23c5.38,1.91,10.3,4.76,15.5,7.06c12.24,5.42,13.91,10.96,17.05,9.88c2.05-0.71,4.25-4.09,1.55-33.87
	c-0.97-10.66-2.06-18.86-3.1-26.81c-2.97-22.65-4.48-34.11-6.2-40.93c-2.12-8.42-3.68-11.33-13.95-35.28
	c-12.08-28.17-13.09-31.56-29.44-69.15c-6.14-14.12-9.6-21.94-15.5-32.46c-5.1-9.1-6.26-9.95-12.4-21.17
	c-5.82-10.63-6.57-13.15-13.95-26.81c-5.27-9.76-5.42-9.46-9.3-16.94c-8.79-16.93-10.26-22.77-10.85-25.4
	c-1.05-4.74-1.22-8.8-1.55-16.94c-0.54-13.31,0.68-15.87,0-26.81C677.52,302.08,676.62,287.67,673.27,287.32z"/>
<path class="st21" d="M683.34,289.44c-2.4,0.54-1.73,10.05-1.55,12.7c2.59,37.87-1.74,35.85,1.55,49.4
	c3.06,12.59,5.8,10.22,24.79,45.16c6.06,11.14,10.24,19.66,18.6,36.69c8.18,16.68,12.57,26.34,23.24,49.4
	c27.18,58.73,27.05,57.35,30.99,67.74c0,0,13.32,35.16,13.95,64.92c0.07,3.46,0.02,5.88,0.02,5.88c-0.02,1.09-0.04,1.05-0.02,1.18
	c0.4,3.15,5.4,3.93,9.3,7.06c4.83,3.88,4.56,8.63,6.2,8.47c2.11-0.21,2.81-8.09,3.1-11.29c0.63-7.04,0.14-12.4,0-14.11
	c-1.03-12.33,0.76-12.55,0-22.58c-1.68-22.13-12.2-44.33-14.95-46.92c-0.13-0.12-0.66-0.59-0.55-1.07c0.32-1.36,5.6-1.61,7.75-1.41
	c10.86,1,16.13,20.38,18.59,19.76c1.6-0.41,0.95-9.03-1.55-19.76c-3.66-15.69-11.62-37.43-19.77-47.56
	c-0.26-0.32-2.34-2.89-1.93-3.24c0.65-0.55,7.53,4.51,10.85,7.06c2.88,2.22,3.83,3.12,4.65,2.82c2.21-0.81,0.44-9.2,0-11.29
	c-4.36-20.71-17.05-36.69-17.05-36.69c-5.45-6.87-16.46-20.74-35.64-29.64c-5.54-2.57-12.85-5.23-12.4-7.06
	c0.46-1.84,8.62-1.93,13.95-1.41c26.02,2.55,43,25.55,44.94,23.99c0.83-0.66-2.1-4.95-7.75-12.7c-9.76-13.4-14.64-20.1-17.05-22.58
	c-5.36-5.53-17.94-18.5-34.09-22.58c-16.54-4.18-20.14-4.23-20.14-4.23c-3.35-0.05-6.73,0.24-7.75-1.41
	c-1.2-1.96,1.13-6.25,4.65-8.47c9.57-6.04,30.14,1.82,39.67,9.15c0.97,0.75,3.18,2.53,3.72,2.14c0.94-0.68-3.51-7.67-7.75-12.7
	c-4.77-5.66-15.35-18.2-30.99-19.76c-9.93-0.99-16.06,3.04-18.59,0c-2.32-2.78,0.21-9.29,4.65-12.7c6.84-5.25,19.63-4.23,27.89-1.41
	c2.78,0.95,5.42,2.23,6.2,1.41c1.26-1.32-3.44-6.98-6.2-9.88c-11.15-11.73-26.38-16.1-29.44-16.94c-13.9-3.8-19.71-1.14-26.34-7.06
	C686.64,293.94,685.11,289.04,683.34,289.44z"/>
<path class="st21" d="M220.02,588.64c-0.58-0.24,0.13-3.93,1.55-11.29c2.46-12.73,3.69-19.09,7.75-23.99
	c5.23-6.31,11.56-7.85,10.85-11.29c-0.46-2.19-3.51-3.87-6.2-4.23c-7.98-1.07-16.8,8.93-20.82,16.01c-2.1,3.69-2.95,6.71-3.97,6.57
	c-1.97-0.27-1.58-11.87-1.55-12.7c0.32-8.56,1.47-39.51,23.24-55.04c3.87-2.76,10.15-6.29,9.3-8.47c-0.6-1.53-4.57-2.01-7.75-1.41
	c-9.89,1.88-14.02,14.65-15.5,14.11c-0.81-0.29-0.78-4.54,3.1-14.11c7.76-19.13,19.65-31.74,21.69-33.87
	c21.86-22.77,43.93-30.87,41.84-35.28c-1.1-2.33-8.02-1.68-10.85-1.41c-28.92,2.73-47.35,26.61-51.14,23.99
	c-1.72-1.19,0.54-7.17,4.65-14.11c19.1-32.25,57.6-50.33,70.19-53.26c1.04-0.24,4.2-0.91,4.19-1.78c-0.02-1.47-9.15-3.57-17.05-2.82
	c-16.44,1.55-26.34,15.31-27.89,14.11c-1.08-0.83,2.61-8.32,10.85-16.94c21.38-22.37,49.21-27.08,48.04-31.05
	c-0.74-2.5-12.3-2.49-20.14-1.41c-9.13,1.26-14.46,4.16-15.5,2.82c-1.66-2.14,10.08-12.05,10.85-12.7
	c23.07-19.36,51.13-29.64,51.14-29.64l0,0c0,0,2.9,7.91,3.1,8.47c4.99,13.71,9.3,55.04,9.3,55.04l0,0c0,0-7.49,15-7.75,15.52
	C335.82,387.91,227.48,591.77,220.02,588.64z"/>
<path class="st22" d="M685.67,731.88c12.18,4.4,25.24,9.94,38.74,16.94c39,20.21,66.68,44.86,85.23,64.92"/>
<path class="st22" d="M686.74,714.58c13.09,0.52,27.42,1.84,42.7,4.41c44.13,7.43,79.16,22.43,103.91,35.83"/>
<path class="st23" d="M691.86,688.13c9.24-1.76,19.07-3.22,29.44-4.23c47.21-4.61,88.29,1.77,119.32,9.88"/>
<path class="st23" d="M147.96,690.96c16.01-2.98,33.63-5.49,52.69-7.06c38.28-3.15,72.38-1.71,100.72,1.41"/>
<path class="st23" d="M158.81,758.7c10.21-6.74,22.06-13.54,35.64-19.76c43.48-19.9,84.85-24.69,113.12-25.4"/>
<path class="st23" d="M183.6,809.51c11.31-9.99,21.47-18,29.44-23.99c29.03-21.8,53.56-35.08,61.98-39.52
	c12.88-6.79,24.13-11.92,32.54-15.52"/>
<ellipse class="st24" cx="295.17" cy="669.79" rx="4.65" ry="4.23"/>
<ellipse class="st24" cx="329.26" cy="695.19" rx="4.65" ry="4.23"/>
<ellipse class="st24" cx="295.17" cy="706.48" rx="4.65" ry="4.23"/>
<ellipse class="st24" cx="352.51" cy="727.65" rx="4.65" ry="4.23"/>
<ellipse class="st24" cx="324.61" cy="741.76" rx="4.65" ry="4.23"/>
<ellipse class="st24" cx="259.53" cy="730.47" rx="4.65" ry="4.23"/>
<ellipse class="st24" cx="282.77" cy="762.93" rx="4.65" ry="4.23"/>
<ellipse class="st24" cx="344.76" cy="769.99" rx="4.65" ry="4.23"/>
<ellipse class="st24" cx="699.61" cy="669.79" rx="4.65" ry="4.23"/>
<ellipse class="st24" cx="699.61" cy="705.07" rx="4.65" ry="4.23"/>
<ellipse class="st24" cx="667.07" cy="692.37" rx="4.65" ry="4.23"/>
<ellipse class="st24" cx="733.7" cy="727.65" rx="4.65" ry="4.23"/>
<ellipse class="st24" cx="671.72" cy="738.94" rx="4.65" ry="4.23"/>
<ellipse class="st24" cx="640.73" cy="727.65" rx="4.65" ry="4.23"/>
<ellipse class="st24" cx="650.03" cy="771.4" rx="4.65" ry="4.23"/>
<ellipse class="st24" cx="713.56" cy="762.93" rx="4.65" ry="4.23"/>
<ellipse class="st25" cx="403.64" cy="363.53" rx="30.99" ry="25.4"/>
<ellipse class="st26" cx="398.99" cy="371.29" rx="18.59" ry="14.82"/>
<ellipse class="st25" cx="396.67" cy="368.47" rx="5.42" ry="4.94"/>
<ellipse class="st25" cx="632.98" cy="364.24" rx="29.44" ry="24.7"/>
<ellipse class="st26" cx="632.21" cy="372" rx="17.82" ry="15.52"/>
<ellipse class="st25" cx="627.56" cy="367.77" rx="5.42" ry="4.23"/>
<path class="st27" d="M399.16,243.1c-0.95-2.55,4.48-6.76,5.89-7.85c15.26-11.82,36.2-9.13,38.28-8.83
	c14.07,2,25.69,8.64,36.31,14.72c5.45,3.12,9.24,5.76,16.69,8.83c5.78,2.38,12.51,5.1,21.59,5.89c11.54,1,20.45-1.67,24.54-2.94
	c5.13-1.59,7.72-3.05,23.56-11.78c14.06-7.75,21.11-11.63,21.59-11.78c16.96-5.3,33.66,2.17,44.17,6.87c0,0,11.74,5.59,28.46,19.63
	c1,0.84,5.25,4.48,8.03,7.15c0.24,0.23,2.76,2.66,2.76,2.66l0,0c0,0,1.15,1.09,1.96,1.96c1.22,1.33,2.24,2.43,1.96,2.94
	c-0.34,0.63-2.44,0.12-2.94,0c-2.7-0.65-4.33-1.92-5.89-2.94c-1.36-0.89-3.52-1.9-7.85-3.93c-2-0.93-4.25-1.98-6.87-2.94
	c-0.86-0.32-5.76-2.08-11.78-2.94c-6.24-0.89-7.06,0.14-15.7,0c-3.41-0.06-9.47-0.69-21.59-1.96c-9.27-0.97-9.32-1.07-10.8-0.98
	c-8.25,0.49-14.4,3.9-19.63,6.87c-3.57,2.03-6.96,4.63-13.74,9.81c-9.21,7.05-9.42,7.91-12.76,9.81
	c-6.63,3.78-12.72,4.31-20.61,4.91c-17.59,1.34-31.3-2.66-35.33-3.93c-13.35-4.19-22.61-10.42-27.48-13.74
	c-10.65-7.28-9.01-8.84-17.67-13.74c-4.64-2.63-15.14-8.58-29.44-9.81C406.3,244.32,400.09,245.59,399.16,243.1z"/>
</svg>
