<?xml version="1.0" encoding="utf-8"?>
<!-- Generator: Adobe Illustrator 23.0.1, SVG Export Plug-In . SVG Version: 6.00 Build 0)  -->
<svg version="1.1" id="Layer_1" xmlns="http://www.w3.org/2000/svg" xmlns:xlink="http://www.w3.org/1999/xlink" x="0px" y="0px"
	 viewBox="0 0 1080 1920" style="enable-background:new 0 0 1080 1920;" xml:space="preserve">
<style type="text/css">
	.st0{fill:none;stroke:#999999;stroke-width:14;stroke-linecap:round;stroke-linejoin:round;stroke-miterlimit:10;}
</style>
<line class="st0" x1="78.97" y1="1565.85" x2="78.97" y2="261.1"/>
<path class="st0" d="M159.64,342.77c-18.01-11.39-51.94-36.24-67.83-75.96c-34.56-86.36,49.16-160.51,52.76-163.6
	c89.08-76.37,258.16-71.83,369.3-23.37c116.05,50.6,153.24,142.23,162.04,166.52"/>
<path class="st0" d="M502.56,334c3.35-4.83,59.29-82.27,173.34-87.64c8.1-0.38,98.94-3.52,162.04,49.66
	c61.95,52.21,70.9,136.57,18.84,207.42"/>
<path class="st0" d="M992.45,734.24c46.07-65.51,34.24-143.04-22.61-186.97c-74.16-57.31-220.43-53.99-305.24,26.29"/>
<path class="st0" d="M898.24,696.26c19.37,4.88,108.09,28.98,143.22,94.98c16.92,31.79,14.39,60.19,11.28,94.91
	c-3.35,37.44-18,107.57-47.24,109.82c-24.26,1.87-47.95-43.79-50.73-42.63c-3.99,1.65,80.6,81.3,79.14,172.37
	c-0.99,61.85-38.85,142.15-131.89,186.97c-81.45,39.24-165.68,32.25-192.19,29.21"/>
<path class="st0" d="M650.78,1124.74c-8.47,1.33-68.3,11.57-99.23,56.48c-16.77,24.35-30.17,57.61-17.63,72.94
	c2.38,2.91,5.07,4.97,5.07,4.97c11.85,9.06,26.43,4.45,43.96,10.71c5.81,2.08,13.09,5.61,27.63,12.66
	c17.86,8.66,26.8,12.99,37.68,19.48c14.13,8.41,24.72,16.2,31.4,21.42c6.94,5.42,11.73,9.79,21.35,18.5
	c11.33,10.26,21.25,19.76,23.87,22.4c21.65,21.86,22.37,58.36,22.61,88.62c0.28,35.48,0.42,53.22-10.05,74.01
	c-5.06,10.06-21.52,39.14-60.29,59.4c-29.93,15.65-39.86,15.05-43.96,13.63c-3.59-1.24-6-3.25-7.54-4.87"/>
<path class="st0" d="M576.67,1520.11c12.63,11.93,21.5,23.19,27.63,32.14c14.04,20.5,19.76,37.75,21.35,42.85
	c4.69,14.98,5.6,26.57,6.28,36.03c1.02,14.16,2.53,35.11-5.02,59.4c-7.72,24.84-21.42,41.91-30.15,52.59
	c-65.09,79.63-177.11,112.96-177.11,112.96c-26.09,7.77-112.84,32.51-216.05,10.71c-37.97-8.02-103.11-21.78-144.45-69.14
	c-36.16-41.43-34.59-86.2-33.92-105.17c1.57-44.43,21.67-76.44,33.92-95.43c31.79-49.29,76.84-80.31,106.77-97.38"/>
<path class="st0" d="M420.91,1276.65c6.46-6.55,20.38-18.46,42.71-23.37c25.45-5.6,48.42,0.84,62.81,4.87
	c10.03,2.81,17.9,6.06,23.24,8.52"/>
<path class="st0" d="M336.1,821.88c-5.43-25.27-21.17-77.06-73.48-127.08c-67.55-64.6-153.63-85.66-184.65-92.03"/>
</svg>
