<?xml version="1.0" encoding="utf-8"?>
<!-- Generator: Adobe Illustrator 23.0.1, SVG Export Plug-In . SVG Version: 6.00 Build 0)  -->
<svg version="1.1" id="Layer_1" xmlns="http://www.w3.org/2000/svg" xmlns:xlink="http://www.w3.org/1999/xlink" x="0px" y="0px"
	 viewBox="0 0 1080 1350" style="enable-background:new 0 0 1080 1350;" xml:space="preserve">
<style type="text/css">
	.st0{fill:none;stroke:url(#SVGID_1_);stroke-width:30;stroke-linecap:round;stroke-linejoin:round;stroke-miterlimit:10;}
	.st1{fill:none;stroke:url(#SVGID_2_);stroke-width:30;stroke-linecap:round;stroke-linejoin:round;stroke-miterlimit:10;}
	.st2{fill:none;stroke:url(#SVGID_3_);stroke-width:30;stroke-linecap:round;stroke-linejoin:round;stroke-miterlimit:10;}
	.st3{fill:none;stroke:url(#SVGID_4_);stroke-width:30;stroke-linecap:round;stroke-linejoin:round;stroke-miterlimit:10;}
	.st4{fill:none;stroke:url(#SVGID_5_);stroke-width:30;stroke-linecap:round;stroke-linejoin:round;stroke-miterlimit:10;}
	.st5{fill:none;stroke:#141414;stroke-width:30;stroke-linecap:round;stroke-linejoin:round;stroke-miterlimit:10;}
	.st6{fill:none;stroke:url(#SVGID_6_);stroke-width:30;stroke-linecap:round;stroke-linejoin:round;stroke-miterlimit:10;}
	.st7{fill:none;stroke:url(#SVGID_7_);stroke-width:30;stroke-linecap:round;stroke-linejoin:round;stroke-miterlimit:10;}
	.st8{fill:none;stroke:url(#SVGID_8_);stroke-width:30;stroke-linecap:round;stroke-linejoin:round;stroke-miterlimit:10;}
	.st9{fill:url(#SVGID_9_);}
	.st10{fill:url(#SVGID_10_);}
	.st11{fill:#040404;stroke:#000000;stroke-width:12;stroke-miterlimit:10;}
	.st12{fill:#141414;stroke:#000000;stroke-width:12;stroke-miterlimit:10;}
	.st13{fill:url(#SVGID_11_);}
	.st14{fill:url(#SVGID_12_);}
	.st15{fill:url(#SVGID_13_);}
	.st16{fill:url(#SVGID_14_);}
	.st17{fill:url(#SVGID_15_);}
	.st18{fill:url(#SVGID_16_);}
</style>
<linearGradient id="SVGID_1_" gradientUnits="userSpaceOnUse" x1="200.4859" y1="790.428" x2="878.108" y2="790.428">
	<stop  offset="0" style="stop-color:#5571BC"/>
	<stop  offset="1" style="stop-color:#8765BC"/>
</linearGradient>
<path class="st0" d="M360.5,918.1C346.9,906.8,211,790.4,215.6,606.2c4.6-185.2,149.2-361.6,332.8-355.7
	c180.6,5.8,313.4,185.3,314.7,366c1.2,171.6-133.8,271.9-133.6,296.4c2.3,214,2.3,214,2.3,214l-181.1,203.6
	c-0.6-0.6-83.5-86.2-84-86.8c-1-1-109.7-113.3-110.7-114.3C357.5,1059,359,988.5,360.5,918.1z"/>
<linearGradient id="SVGID_2_" gradientUnits="userSpaceOnUse" x1="341" y1="1094.6001" x2="746.7999" y2="1094.6001">
	<stop  offset="0" style="stop-color:#5571BC"/>
	<stop  offset="1" style="stop-color:#8765BC"/>
</linearGradient>
<path class="st1" d="M356,1129.4c99.6-69.6,99.6-69.6,99.6-69.6l84,69.6l92.6-69.6l99.6,67"/>
<linearGradient id="SVGID_3_" gradientUnits="userSpaceOnUse" x1="341" y1="775" x2="470.6" y2="775">
	<stop  offset="0" style="stop-color:#5571BC"/>
	<stop  offset="1" style="stop-color:#8765BC"/>
</linearGradient>
<polyline class="st2" points="356,490.2 451.1,562.4 455.6,1059.8 "/>
<linearGradient id="SVGID_4_" gradientUnits="userSpaceOnUse" x1="436.1" y1="526.3" x2="728.7" y2="526.3">
	<stop  offset="0" style="stop-color:#5571BC"/>
	<stop  offset="1" style="stop-color:#8765BC"/>
</linearGradient>
<polyline class="st3" points="451.1,562.4 539.3,490.2 629.9,562.4 713.7,490.2 "/>
<linearGradient id="SVGID_5_" gradientUnits="userSpaceOnUse" x1="614.9" y1="811.1" x2="647.16" y2="811.1">
	<stop  offset="0" style="stop-color:#5571BC"/>
	<stop  offset="1" style="stop-color:#8765BC"/>
</linearGradient>
<line class="st4" x1="629.9" y1="562.4" x2="632.2" y2="1059.8"/>
<path class="st5" d="M541.6,1209.3"/>
<linearGradient id="SVGID_6_" gradientUnits="userSpaceOnUse" x1="15" y1="616.5" x2="171.8" y2="616.5">
	<stop  offset="0" style="stop-color:#4E7EBC"/>
	<stop  offset="1" style="stop-color:#8765BC"/>
</linearGradient>
<line class="st6" x1="30" y1="616.5" x2="156.8" y2="616.5"/>
<linearGradient id="SVGID_7_" gradientUnits="userSpaceOnUse" x1="908.2" y1="616.5" x2="1065" y2="616.5">
	<stop  offset="0" style="stop-color:#4E7EBC"/>
	<stop  offset="1" style="stop-color:#8765BC"/>
</linearGradient>
<line class="st7" x1="923.2" y1="616.5" x2="1050" y2="616.5"/>
<linearGradient id="SVGID_8_" gradientUnits="userSpaceOnUse" x1="524.3" y1="102.7" x2="554.3" y2="102.7">
	<stop  offset="0" style="stop-color:#4E7EBC"/>
	<stop  offset="1" style="stop-color:#8765BC"/>
</linearGradient>
<line class="st8" x1="539.3" y1="174.9" x2="539.3" y2="30.5"/>
<g>
	<linearGradient id="SVGID_9_" gradientUnits="userSpaceOnUse" x1="180.1" y1="961.5" x2="251.1" y2="961.5">
		<stop  offset="0" style="stop-color:#4E7EBC"/>
		<stop  offset="1" style="stop-color:#8765BC"/>
	</linearGradient>
	<ellipse class="st9" cx="215.6" cy="961.5" rx="35.5" ry="36.9"/>
	<linearGradient id="SVGID_10_" gradientUnits="userSpaceOnUse" x1="180.1" y1="961.5" x2="251.1" y2="961.5">
		<stop  offset="0" style="stop-color:#4E7EBC"/>
		<stop  offset="1" style="stop-color:#8765BC"/>
	</linearGradient>
	<path class="st10" d="M215.6,954.6c3,0,5.5,3.2,5.5,6.9s-2.5,6.9-5.5,6.9s-5.5-3.2-5.5-6.9S212.6,954.6,215.6,954.6 M215.6,924.6
		c-19.6,0-35.5,16.5-35.5,36.9s15.9,36.9,35.5,36.9s35.5-16.5,35.5-36.9S235.1,924.6,215.6,924.6L215.6,924.6z"/>
</g>
<g>
	<path class="st11" d="M490.1,1273c16-18.6,37.9-29.2,60.8-29.2c21.6,0,42.6,9.6,58.3,26.4l-58.4,64.6L490.1,1273z"/>
	<path class="st12" d="M550.9,1248.3c19,0,37.6,8,52.1,22.1l-52.4,57.9l-54.4-55.4C511.1,1257.1,530.7,1248.3,550.9,1248.3
		 M550.9,1239.3c-25.5,0-49.8,12.4-66.8,34l66.8,68.1l64.3-71.2C598.4,1250.4,575.2,1239.3,550.9,1239.3L550.9,1239.3z"/>
</g>
<g>
	<linearGradient id="SVGID_11_" gradientUnits="userSpaceOnUse" x1="827.9" y1="961.5" x2="898.9" y2="961.5">
		<stop  offset="0" style="stop-color:#4E7EBC"/>
		<stop  offset="1" style="stop-color:#8765BC"/>
	</linearGradient>
	<ellipse class="st13" cx="863.4" cy="961.5" rx="35.5" ry="36.9"/>
	<linearGradient id="SVGID_12_" gradientUnits="userSpaceOnUse" x1="827.9" y1="961.5" x2="898.9" y2="961.5">
		<stop  offset="0" style="stop-color:#4E7EBC"/>
		<stop  offset="1" style="stop-color:#8765BC"/>
	</linearGradient>
	<path class="st14" d="M863.4,954.6c3,0,5.5,3.2,5.5,6.9s-2.5,6.9-5.5,6.9s-5.5-3.2-5.5-6.9S860.5,954.6,863.4,954.6 M863.4,924.6
		c-19.6,0-35.5,16.5-35.5,36.9s15.9,36.9,35.5,36.9s35.5-16.5,35.5-36.9S883,924.6,863.4,924.6L863.4,924.6z"/>
</g>
<g>
	<linearGradient id="SVGID_13_" gradientUnits="userSpaceOnUse" x1="827.9" y1="249.8" x2="898.9" y2="249.8">
		<stop  offset="0" style="stop-color:#4E7EBC"/>
		<stop  offset="1" style="stop-color:#8765BC"/>
	</linearGradient>
	<ellipse class="st15" cx="863.4" cy="249.8" rx="35.5" ry="36.9"/>
	<linearGradient id="SVGID_14_" gradientUnits="userSpaceOnUse" x1="827.9" y1="249.8" x2="898.9" y2="249.8">
		<stop  offset="0" style="stop-color:#4E7EBC"/>
		<stop  offset="1" style="stop-color:#8765BC"/>
	</linearGradient>
	<path class="st16" d="M863.4,242.9c3,0,5.5,3.2,5.5,6.9s-2.5,6.9-5.5,6.9s-5.5-3.2-5.5-6.9S860.5,242.9,863.4,242.9 M863.4,212.9
		c-19.6,0-35.5,16.5-35.5,36.9s15.9,36.9,35.5,36.9s35.5-16.5,35.5-36.9S883,212.9,863.4,212.9L863.4,212.9z"/>
</g>
<g>
	<linearGradient id="SVGID_15_" gradientUnits="userSpaceOnUse" x1="180.1" y1="249.8" x2="251.1" y2="249.8">
		<stop  offset="0" style="stop-color:#4E7EBC"/>
		<stop  offset="1" style="stop-color:#8765BC"/>
	</linearGradient>
	<ellipse class="st17" cx="215.6" cy="249.8" rx="35.5" ry="36.9"/>
	<linearGradient id="SVGID_16_" gradientUnits="userSpaceOnUse" x1="180.1" y1="249.8" x2="251.1" y2="249.8">
		<stop  offset="0" style="stop-color:#4E7EBC"/>
		<stop  offset="1" style="stop-color:#8765BC"/>
	</linearGradient>
	<path class="st18" d="M215.6,242.9c3,0,5.5,3.2,5.5,6.9s-2.5,6.9-5.5,6.9s-5.5-3.2-5.5-6.9S212.6,242.9,215.6,242.9 M215.6,212.9
		c-19.6,0-35.5,16.5-35.5,36.9s15.9,36.9,35.5,36.9s35.5-16.5,35.5-36.9S235.1,212.9,215.6,212.9L215.6,212.9z"/>
</g>
</svg>
