<?xml version="1.0" encoding="utf-8"?>
<!-- Generator: Adobe Illustrator 23.0.1, SVG Export Plug-In . SVG Version: 6.00 Build 0)  -->
<svg version="1.1" id="Layer_1" xmlns="http://www.w3.org/2000/svg" xmlns:xlink="http://www.w3.org/1999/xlink" x="0px" y="0px"
	 viewBox="0 0 1080 1350" style="enable-background:new 0 0 1080 1350;" xml:space="preserve">
<style type="text/css">
	.st0{fill:none;stroke:#898383;stroke-width:30;stroke-linecap:round;stroke-linejoin:round;stroke-miterlimit:10;}
	.st1{fill:#898383;stroke:#898383;stroke-miterlimit:10;}
	.st2{fill:#333232;stroke:#333232;stroke-width:12;stroke-miterlimit:10;}
</style>
<path class="st0" d="M360.5,918.1C346.9,906.8,211,790.4,215.6,606.2c4.6-185.2,149.2-361.6,332.8-355.7
	c180.6,5.8,313.4,185.3,314.7,366c1.2,171.6-133.8,271.9-133.6,296.4c2.3,214,2.3,214,2.3,214l-181.1,203.6
	c-0.6-0.6-83.5-86.2-84-86.8c-1-1-109.7-113.3-110.7-114.3C357.5,1059,359,988.5,360.5,918.1z"/>
<path class="st0" d="M356,1129.4c99.6-69.6,99.6-69.6,99.6-69.6l84,69.6l92.6-69.6l99.6,67"/>
<polyline class="st0" points="356,490.2 451.1,562.4 455.6,1059.8 "/>
<polyline class="st0" points="451.1,562.4 539.3,490.2 629.9,562.4 713.7,490.2 "/>
<line class="st0" x1="629.9" y1="562.4" x2="632.2" y2="1059.8"/>
<path class="st0" d="M541.6,1209.3"/>
<line class="st0" x1="30" y1="616.5" x2="156.8" y2="616.5"/>
<line class="st0" x1="923.2" y1="616.5" x2="1050" y2="616.5"/>
<line class="st0" x1="539.3" y1="174.9" x2="539.3" y2="30.5"/>
<g>
	<path class="st1" d="M215.6,983.4c-11.3,0-20.5-9.8-20.5-21.9c0-12.1,9.2-21.9,20.5-21.9s20.5,9.8,20.5,21.9
		C236,973.6,226.8,983.4,215.6,983.4z"/>
	<path class="st1" d="M215.6,954.6c3,0,5.5,3.2,5.5,6.9s-2.5,6.9-5.5,6.9s-5.5-3.2-5.5-6.9S212.6,954.6,215.6,954.6 M215.6,924.6
		c-19.6,0-35.5,16.5-35.5,36.9s15.9,36.9,35.5,36.9s35.5-16.5,35.5-36.9S235.1,924.6,215.6,924.6L215.6,924.6z"/>
</g>
<g>
	<path class="st2" d="M490.1,1273c16-18.6,37.9-29.2,60.8-29.2c21.6,0,42.6,9.6,58.3,26.4l-58.4,64.6L490.1,1273z"/>
	<path class="st2" d="M550.9,1248.3c19,0,37.6,8,52.1,22.1l-52.4,57.9l-54.4-55.4C511.1,1257.1,530.7,1248.3,550.9,1248.3
		 M550.9,1239.3c-25.5,0-49.8,12.4-66.8,34l66.8,68.1l64.3-71.2C598.4,1250.4,575.2,1239.3,550.9,1239.3L550.9,1239.3z"/>
</g>
<g>
	<path class="st1" d="M863.4,983.4c-11.3,0-20.5-9.8-20.5-21.9c0-12.1,9.2-21.9,20.5-21.9s20.5,9.8,20.5,21.9
		C883.9,973.6,874.7,983.4,863.4,983.4z"/>
	<path class="st1" d="M863.4,954.6c3,0,5.5,3.2,5.5,6.9s-2.5,6.9-5.5,6.9s-5.5-3.2-5.5-6.9S860.5,954.6,863.4,954.6 M863.4,924.6
		c-19.6,0-35.5,16.5-35.5,36.9s15.9,36.9,35.5,36.9s35.5-16.5,35.5-36.9S883,924.6,863.4,924.6L863.4,924.6z"/>
</g>
<g>
	<ellipse class="st1" cx="863.4" cy="249.8" rx="20.5" ry="21.9"/>
	<path class="st1" d="M863.4,242.9c3,0,5.5,3.2,5.5,6.9s-2.5,6.9-5.5,6.9s-5.5-3.2-5.5-6.9S860.5,242.9,863.4,242.9 M863.4,212.9
		c-19.6,0-35.5,16.5-35.5,36.9s15.9,36.9,35.5,36.9s35.5-16.5,35.5-36.9S883,212.9,863.4,212.9L863.4,212.9z"/>
</g>
<g>
	<path class="st1" d="M215.6,271.7c-11.3,0-20.5-9.8-20.5-21.9s9.2-21.9,20.5-21.9s20.5,9.8,20.5,21.9
		C236,261.9,226.8,271.7,215.6,271.7z"/>
	<path class="st1" d="M215.6,242.9c3,0,5.5,3.2,5.5,6.9s-2.5,6.9-5.5,6.9s-5.5-3.2-5.5-6.9S212.6,242.9,215.6,242.9 M215.6,212.9
		c-19.6,0-35.5,16.5-35.5,36.9s15.9,36.9,35.5,36.9s35.5-16.5,35.5-36.9S235.1,212.9,215.6,212.9L215.6,212.9z"/>
</g>
</svg>
