<?xml version="1.0" encoding="utf-8"?>
<!-- Generator: Adobe Illustrator 23.0.1, SVG Export Plug-In . SVG Version: 6.00 Build 0)  -->
<svg version="1.1" id="Layer_1" xmlns="http://www.w3.org/2000/svg" xmlns:xlink="http://www.w3.org/1999/xlink" x="0px" y="0px"
	 viewBox="0 0 1080 1920" style="enable-background:new 0 0 1080 1920;" xml:space="preserve">
<style type="text/css">
	.st0{fill:none;stroke:url(#SVGID_1_);stroke-width:14;stroke-miterlimit:10;box-shadow: inset 5px 5px 12px 0 #aaa,inset -8px -8px 12px 0 #eee;}
	.st1{fill:none;stroke:url(#SVGID_2_);stroke-width:14;stroke-miterlimit:10;}
	.st2{fill:none;stroke:url(#SVGID_3_);stroke-width:14;stroke-miterlimit:10;}
	.st3{fill:none;stroke:url(#SVGID_4_);stroke-width:14;stroke-miterlimit:10;}
	.st4{fill:none;stroke:url(#SVGID_5_);stroke-width:14;stroke-miterlimit:10;}
	.st5{fill:none;stroke:url(#SVGID_6_);stroke-width:14;stroke-miterlimit:10;}
	.st6{fill:none;stroke:url(#SVGID_7_);stroke-width:14;stroke-miterlimit:10;}
	.st7{fill:none;stroke:url(#SVGID_8_);stroke-width:14;stroke-miterlimit:10;}
	.st8{fill:none;stroke:url(#SVGID_9_);stroke-width:14;stroke-miterlimit:10;}
</style>
<linearGradient id="SVGID_1_" gradientUnits="userSpaceOnUse" x1="43.5705" y1="195.1266" x2="669.7909" y2="195.1266">
	<stop  offset="0" style="stop-color:#396EB1"/>
	<stop  offset="1" style="stop-color:#363396"/>
</linearGradient>
<path class="st0" d="M129.35,343.19c19.53,14.8-53.71-36.3-70.15-76.07c-35.74-86.49,50.83-160.74,54.56-163.83
	c92.12-76.48,266.97-71.93,381.9-23.41c120.01,50.67,158.47,142.43,167.57,166.76"/>
<linearGradient id="SVGID_2_" gradientUnits="userSpaceOnUse" x1="476.7562" y1="373.9036" x2="892.4135" y2="373.9036">
	<stop  offset="0" style="stop-color:#396EB1"/>
	<stop  offset="1" style="stop-color:#363396"/>
</linearGradient>
<path class="st1" d="M483.97,334.42c-4.49,6.06,60.81-81.64,179.26-87.77c8.37-0.43,102.32-3.52,167.57,49.74
	c64.06,52.29,73.32,136.76,19.48,207.72"/>
<linearGradient id="SVGID_3_" gradientUnits="userSpaceOnUse" x1="640.1082" y1="615.8425" x2="1026.9117" y2="615.8425">
	<stop  offset="0" style="stop-color:#396EB1"/>
	<stop  offset="1" style="stop-color:#363396"/>
</linearGradient>
<path class="st2" d="M990.58,735.23c47.64-65.61,35.41-143.24-23.38-187.24c-31.92-23.89-62.02-33.62-85.36-39.33
	c-25.71-6.29-71.71-16.95-127.02-0.81c-55.79,16.28-126.15,88.17-103.27,66.47"/>
<linearGradient id="SVGID_4_" gradientUnits="userSpaceOnUse" x1="694.6165" y1="1022.1729" x2="1062.0001" y2="1022.1729">
	<stop  offset="0" style="stop-color:#396EB1"/>
	<stop  offset="1" style="stop-color:#363396"/>
</linearGradient>
<path class="st3" d="M887.46,699.55c-11.05-1.95,63.33,6.82,103.5,36c11.86,8.61,34.94,25.79,50.31,56.76
	c17.69,35.65,14.14,68.2,11.66,95.05c-3.47,37.5-25.8,108.01-48.86,109.98c-19.15-0.03-49.59-43.85-52.47-42.69
	c-4.13,1.66,83.35,81.42,81.84,172.61c-1.39,83.67-75.53,154.07-136.39,187.24c-86.3,47.03-190.94,24.41-198.75,29.26"/>
<linearGradient id="SVGID_5_" gradientUnits="userSpaceOnUse" x1="53.2795" y1="714.3043" x2="328.5342" y2="714.3043">
	<stop  offset="0" style="stop-color:#396EB1"/>
	<stop  offset="1" style="stop-color:#363396"/>
</linearGradient>
<path class="st4" d="M320.73,823c6.01,17.65-21.9-77.17-75.99-127.26c-69.85-64.69-159.16-94.46-190.95-92.16"/>
<linearGradient id="SVGID_6_" gradientUnits="userSpaceOnUse" x1="48.7959" y1="912.8038" x2="62.7959" y2="912.8038">
	<stop  offset="0" style="stop-color:#396EB1"/>
	<stop  offset="1" style="stop-color:#363396"/>
</linearGradient>
<line class="st5" x1="55.8" y1="1566.11" x2="55.8" y2="259.5"/>
<linearGradient id="SVGID_7_" gradientUnits="userSpaceOnUse" x1="390.2595" y1="1264.4738" x2="525.7608" y2="1264.4738">
	<stop  offset="0" style="stop-color:#396EB1"/>
	<stop  offset="1" style="stop-color:#363396"/>
</linearGradient>
<path class="st6" d="M399.54,1278.42c-10.49,5.96,18.65-12.53,18.65-12.53s18.23-8.62,25.52-10.87c9.57-2.85,17.77-4.1,23.72-4.7
	c12.1-1.22,27.94-2.63,44.21,4.87c4.43,2.04,7.82,4.25,10.05,5.84"/>
<linearGradient id="SVGID_8_" gradientUnits="userSpaceOnUse" x1="507.2586" y1="1365.8636" x2="744.3607" y2="1365.8636">
	<stop  offset="0" style="stop-color:#396EB1"/>
	<stop  offset="1" style="stop-color:#363396"/>
</linearGradient>
<path class="st7" d="M639.26,1129.66c15.07-2.92-31.78,2.51-53.7,12.53c-30.53,13.95-46.72,34.94-50.93,40.66
	c-26.83,36.52-20.14,70.79-18.23,73.04c2.46,2.91,5.24,4.97,5.24,4.97c12.26,9.08,27.33,4.45,45.46,10.73
	c6.01,2.08,13.53,5.61,28.58,12.68c18.47,8.68,27.71,13.01,38.97,19.5c14.61,8.42,25.56,16.22,32.47,21.45
	c7.17,5.43,12.13,9.8,22.08,18.53c11.72,10.28,21.98,19.79,24.68,22.43c22.38,21.9,23.14,58.44,23.38,88.74
	c0.29,35.53,0.43,53.29-10.39,74.12c-5.24,10.07-22.26,39.19-62.35,59.49c-30.95,15.67-41.22,15.07-45.46,13.65
	c-1.85-0.62-3.5-1.56-3.5-1.56c-1.99-1.13-3.41-2.41-4.29-3.32"/>
<linearGradient id="SVGID_9_" gradientUnits="userSpaceOnUse" x1="18.0001" y1="1686.4932" x2="625.649" y2="1686.4932">
	<stop  offset="0" style="stop-color:#396EB1"/>
	<stop  offset="1" style="stop-color:#363396"/>
</linearGradient>
<path class="st8" d="M560.61,1522.22c-11.8-13.06,22.24,23.22,28.58,32.18c14.52,20.53,20.43,37.81,22.08,42.91
	c4.85,15.01,5.79,26.61,6.5,36.08c1.05,14.18,2.61,35.16-5.2,59.49c-7.99,24.88-22.15,41.97-31.18,52.66
	c-67.31,79.74-183.16,113.12-183.16,113.12c-19.63,6.61-133.82,43.1-239.31-17.68C67.5,1788.3,0.9,1673.07,33.32,1595.77
	c24.5-58.4,106.24-96.94,106.42-96.84c0,0,5.98-3.39,0.02,0.02c-5.96,3.4,0.11,0.3,0.07,0.48"/>
</svg>
